<?xml version="1.0" encoding="utf-8"?>
<!-- Generator: Adobe Illustrator 27.2.0, SVG Export Plug-In . SVG Version: 6.00 Build 0)  -->
<svg version="1.1" id="Capa_1" xmlns="http://www.w3.org/2000/svg" xmlns:xlink="http://www.w3.org/1999/xlink" x="0px" y="0px"
	 viewBox="0 0 750 500" style="enable-background:new 0 0 750 500;" xml:space="preserve">
<style type="text/css">
	.st0{clip-path:url(#SVGID_00000102511941765210146800000003074955356502632875_);fill:#043246;}
	.st1{clip-path:url(#SVGID_00000102511941765210146800000003074955356502632875_);}
	.st2{fill:#043246;}
	.st3{fill:#C7FFFF;}
</style>
<g>
	<defs>
		<rect id="SVGID_1_" width="750" height="500"/>
	</defs>
	<clipPath id="SVGID_00000080891364423132193650000008888610754537004726_">
		<use xlink:href="#SVGID_1_"  style="overflow:visible;"/>
	</clipPath>
	<path style="clip-path:url(#SVGID_00000080891364423132193650000008888610754537004726_);fill:#043246;" d="M-22.97,443.25
		l58.65-6.59H73.9l23.72,11.86h28.99h44.81c0,0,14.5-1.32,32.95,0c18.45,1.32,61.94-18.45,61.94-18.45l46.13,9.26l83.03,9.26h46.13
		h40.85l40.85-9.26h64.58l50.08-14.53l40.85,11.89h63.26l60.62,11.89l13.18,43.52v39.91l-852.66-14.97L-22.97,443.25z"/>
	<g style="clip-path:url(#SVGID_00000080891364423132193650000008888610754537004726_);">
		<path class="st2" d="M150.27,472.28c0,0,0-49.72,37.93-66.58c0,0-37.15,26.13-24.44,70.79
			C172.11,505.86,150.27,472.28,150.27,472.28z"/>
		<path class="st2" d="M147.32,480.29c0,0-12.64-50.15,29.17-89.76c0,0-26.22,30.47-25.71,81.08
			C151.13,506.54,147.32,480.29,147.32,480.29z"/>
		<path class="st2" d="M153.72,495.08c0,0-25.79-44.82,3.69-94.31c0,0-16.96,36.45-2.72,85.02
			C164.51,519.31,153.72,495.08,153.72,495.08z"/>
		<path class="st2" d="M129.12,492.28c0,0-25.79-44.82,3.69-94.31c0,0-16.96,36.45-2.72,85.02
			C139.92,516.51,129.12,492.28,129.12,492.28z"/>
		<path class="st2" d="M130.87,503.59c0,0-31.48-41.03-8.8-93.97c0,0-11.99,38.37,8.53,84.63
			C144.77,526.18,130.87,503.59,130.87,503.59z"/>
		<path class="st2" d="M140.85,520.69c0,0-31.48-41.03-8.8-93.97c0,0-11.99,38.37,8.53,84.63
			C154.75,543.28,140.85,520.69,140.85,520.69z"/>
		<path class="st2" d="M178.03,524.27c0,0-31.48-41.03-8.8-93.97c0,0-11.99,38.37,8.53,84.63
			C191.93,546.86,178.03,524.27,178.03,524.27z"/>
		<path class="st2" d="M179.66,495.07c0,0-25.78-44.83,3.72-94.3c0,0-16.97,36.44-2.75,85.02
			C190.45,519.31,179.66,495.07,179.66,495.07z"/>
		<path class="st2" d="M176.09,513.46c0,0-13.51-49.92,27.6-90.25c0,0-25.69,30.92-24.3,81.52
			C180.35,539.65,176.09,513.46,176.09,513.46z"/>
		<path class="st2" d="M183.15,489.44c0,0-21.43-47.07,12.61-93.53c0,0-20.33,34.68-10.76,84.38
			C191.6,514.59,183.15,489.44,183.15,489.44z"/>
		<path class="st2" d="M138.3,482.69c0,0,25.79-44.82-3.69-94.3c0,0,16.96,36.45,2.72,85.02
			C127.51,506.92,138.3,482.69,138.3,482.69z"/>
		<path class="st2" d="M127.94,469.33c0,0,7.16-37.5-2.53-56.04c0,0,15.59,14.75,7.79,56.04H127.94z"/>
		<path class="st2" d="M126.45,476.5c0,0,14.74-35.22,9.08-55.36c0,0,12.21,17.65-3.93,56.45L126.45,476.5z"/>
		<path class="st2" d="M181.44,487.62c0,0,14.74-35.22,9.08-55.36c0,0,12.21,17.65-3.93,56.45L181.44,487.62z"/>
		<path class="st2" d="M188.2,471.96c0,0,14.74-35.22,9.08-55.36c0,0,12.21,17.65-3.93,56.45L188.2,471.96z"/>
		<path class="st2" d="M111.23,481.36c0,0,0.19-38.18-12.73-54.64c0,0,18.02,11.65,17.91,53.68L111.23,481.36z"/>
		<path class="st2" d="M99.23,476.68c0,0,0.19-38.18-12.73-54.64c0,0,18.02,11.65,17.91,53.68L99.23,476.68z"/>
		<path class="st2" d="M96.64,474.74c0,0,11.84-36.3,4.57-55.92c0,0,13.6,16.6,0.65,56.58L96.64,474.74z"/>
	</g>
	<g style="clip-path:url(#SVGID_00000080891364423132193650000008888610754537004726_);">
		<path class="st2" d="M215.08,444.05c0,0,0-67.62,53.35-90.54c0,0-52.26,35.53-34.38,96.27
			C245.8,489.71,215.08,444.05,215.08,444.05z"/>
		<path class="st2" d="M210.93,454.94c0,0-17.78-68.19,41.04-122.05c0,0-36.89,41.43-36.17,110.26
			C216.28,490.64,210.93,454.94,210.93,454.94z"/>
		<path class="st2" d="M219.92,475.05c0,0-36.28-60.95,5.19-128.24c0,0-23.85,49.56-3.82,115.61
			C235.11,508,219.92,475.05,219.92,475.05z"/>
		<path class="st2" d="M185.32,471.24c0,0-36.28-60.95,5.19-128.24c0,0-23.85,49.56-3.82,115.61
			C200.51,504.19,185.32,471.24,185.32,471.24z"/>
		<path class="st2" d="M187.78,486.62c0,0-44.29-55.79-12.38-127.78c0,0-16.87,52.17,12.01,115.08
			C207.34,517.35,187.78,486.62,187.78,486.62z"/>
		<path class="st2" d="M201.82,509.87c0,0-44.29-55.79-12.38-127.78c0,0-16.87,52.17,12.01,115.08
			C221.37,540.6,201.82,509.87,201.82,509.87z"/>
		<path class="st2" d="M254.12,514.74c0,0-44.29-55.79-12.38-127.78c0,0-16.87,52.17,12.01,115.08
			C273.68,545.47,254.12,514.74,254.12,514.74z"/>
		<path class="st2" d="M256.42,475.05c0,0-36.26-60.96,5.23-128.24c0,0-23.87,49.55-3.86,115.61
			C271.6,508,256.42,475.05,256.42,475.05z"/>
		<path class="st2" d="M251.39,500.05c0,0-19.01-67.88,38.83-122.72c0,0-36.13,42.05-34.18,110.85
			C257.39,535.66,251.39,500.05,251.39,500.05z"/>
		<path class="st2" d="M261.33,467.39c0,0-30.14-64,17.74-127.18c0,0-28.6,47.15-15.14,114.74
			C273.21,501.58,261.33,467.39,261.33,467.39z"/>
		<path class="st2" d="M198.24,458.21c0,0,36.28-60.95-5.19-128.24c0,0,23.85,49.56,3.82,115.61
			C183.06,491.16,198.24,458.21,198.24,458.21z"/>
		<path class="st2" d="M183.66,440.04c0,0,10.08-51-3.56-76.21c0,0,21.93,20.06,10.97,76.21H183.66z"/>
		<path class="st2" d="M181.57,449.78c0,0,20.74-47.89,12.78-75.28c0,0,17.18,24-5.53,76.76L181.57,449.78z"/>
		<path class="st2" d="M258.92,464.91c0,0,20.74-47.89,12.78-75.28c0,0,17.18,24-5.53,76.76L258.92,464.91z"/>
		<path class="st2" d="M268.43,443.62c0,0,20.74-47.89,12.78-75.28c0,0,17.18,24-5.53,76.76L268.43,443.62z"/>
		<path class="st2" d="M160.16,456.4c0,0,0.26-51.92-17.91-74.3c0,0,25.35,15.84,25.19,72.99L160.16,456.4z"/>
		<path class="st2" d="M143.27,450.03c0,0,0.26-51.92-17.91-74.3c0,0,25.35,15.84,25.19,72.99L143.27,450.03z"/>
		<path class="st2" d="M139.63,447.4c0,0,16.66-49.36,6.43-76.03c0,0,19.13,22.57,0.92,76.94L139.63,447.4z"/>
	</g>
	<g style="clip-path:url(#SVGID_00000080891364423132193650000008888610754537004726_);">
		<path class="st2" d="M-23.06,416.42c0,0,13.03-58.53,63.63-68.09c0,0-52.09,20.68-48.31,76.71
			C-5.26,461.86-23.06,416.42-23.06,416.42z"/>
		<path class="st2" d="M-28.75,425.05c0,0-2.26-62.46,59.04-97.75c0,0-39.91,28.76-52.56,88.48
			C-30.99,456.98-28.75,425.05-28.75,425.05z"/>
		<path class="st2" d="M-24.84,444.19c0,0-19.66-59.76,29.2-110.01c0,0-30.2,38.31-25.59,99.34
			C-18.04,475.64-24.84,444.19-24.84,444.19z"/>
		<path class="st2" d="M-54.05,434.22c0,0-19.66-59.76,29.2-110.01c0,0-30.2,38.31-25.59,99.34
			C-47.26,465.68-54.05,434.22-54.05,434.22z"/>
		<path class="st2" d="M-54.89,448.01c0,0-27.59-56.83,13.9-113c0,0-24.66,41.91-11.78,101.94
			C-43.88,478.38-54.89,448.01-54.89,448.01z"/>
		<path class="st2" d="M-47.22,470.84c0,0-27.59-56.83,13.9-113c0,0-24.66,41.91-11.78,101.94
			C-36.21,501.21-47.22,470.84-47.22,470.84z"/>
		<path class="st2" d="M-2.88,485.14c0,0-27.59-56.83,13.9-113c0,0-24.66,41.91-11.78,101.94C8.13,515.5-2.88,485.14-2.88,485.14z"
			/>
		<path class="st2" d="M6.76,451.22c0,0-19.64-59.76,29.24-110c0,0-30.21,38.3-25.62,99.33C13.55,482.67,6.76,451.22,6.76,451.22z"
			/>
		<path class="st2" d="M-2.41,471.89c0,0-3.38-62.42,57.26-98.76c0,0-39.38,29.44-50.95,89.37C-4.08,503.87-2.41,471.89-2.41,471.89
			z"/>
		<path class="st2" d="M12.48,445.53c0,0-13.76-61.21,39.86-106.68c0,0-33.85,35.31-35.22,96.41
			C16.18,477.42,12.48,445.53,12.48,445.53z"/>
		<path class="st2" d="M-40.36,425.43c0,0,43.15-45.77,20.22-112.01c0,0,11.1,47.5-18.97,100.82
			C-59.86,451.03-40.36,425.43-40.36,425.43z"/>
		<path class="st2" d="M-49.48,406.89c0,0,18.55-42.21,11.61-66.66c0,0,15.12,21.59-5.19,68.09L-49.48,406.89z"/>
		<path class="st2" d="M-53.17,414.92c0,0,27.18-37.46,25.57-62.71c0,0,10.25,24.08-19.58,65.38L-53.17,414.92z"/>
		<path class="st2" d="M10.88,442.93c0,0,27.18-37.46,25.57-62.71c0,0,10.25,24.08-19.58,65.38L10.88,442.93z"/>
		<path class="st2" d="M23.21,426.33c0,0,27.18-37.46,25.57-62.71c0,0,10.25,24.08-19.58,65.38L23.21,426.33z"/>
		<path class="st2" d="M-72.98,416.52c0,0,10.23-44.89-1.19-67.77c0,0,18.9,18.6,7.75,68.04L-72.98,416.52z"/>
		<path class="st2" d="M-86.37,407.76c0,0,10.23-44.89-1.19-67.77c0,0,18.9,18.6,7.75,68.04L-86.37,407.76z"/>
		<path class="st2" d="M-89.02,404.78c0,0,23.93-39.52,20.22-64.58c0,0,12.21,23.23-14.03,66.78L-89.02,404.78z"/>
	</g>
	<g style="clip-path:url(#SVGID_00000080891364423132193650000008888610754537004726_);">
		<path class="st2" d="M68.65,451.29c0,0,0-41.11-31.35-55.04c0,0,30.71,21.6,20.21,58.53C50.59,479.05,68.65,451.29,68.65,451.29z"
			/>
		<path class="st2" d="M71.09,457.91c0,0,10.45-41.46-24.12-74.2c0,0,21.68,25.19,21.26,67.03
			C67.94,479.62,71.09,457.91,71.09,457.91z"/>
		<path class="st2" d="M65.8,470.14c0,0,21.32-37.06-3.05-77.96c0,0,14.02,30.13,2.25,70.29C56.88,490.17,65.8,470.14,65.8,470.14z"
			/>
		<path class="st2" d="M86.13,467.82c0,0,21.32-37.06-3.05-77.96c0,0,14.02,30.13,2.25,70.29
			C77.21,487.86,86.13,467.82,86.13,467.82z"/>
		<path class="st2" d="M84.69,477.18c0,0,26.03-33.92,7.28-77.68c0,0,9.92,31.72-7.06,69.97C73.2,495.85,84.69,477.18,84.69,477.18z
			"/>
		<path class="st2" d="M76.44,491.31c0,0,26.03-33.92,7.28-77.68c0,0,9.92,31.72-7.06,69.97C64.95,509.99,76.44,491.31,76.44,491.31
			z"/>
		<path class="st2" d="M45.7,494.27c0,0,26.03-33.92,7.28-77.68c0,0,9.92,31.72-7.06,69.97C34.21,512.95,45.7,494.27,45.7,494.27z"
			/>
		<path class="st2" d="M44.35,470.14c0,0,21.31-37.06-3.07-77.96c0,0,14.03,30.13,2.27,70.29
			C35.43,490.17,44.35,470.14,44.35,470.14z"/>
		<path class="st2" d="M47.31,485.34c0,0,11.17-41.27-22.82-74.61c0,0,21.23,25.56,20.09,67.39
			C43.78,506.99,47.31,485.34,47.31,485.34z"/>
		<path class="st2" d="M41.47,465.48c0,0,17.71-38.91-10.42-77.32c0,0,16.81,28.67,8.9,69.76
			C34.48,486.27,41.47,465.48,41.47,465.48z"/>
		<path class="st2" d="M78.54,459.9c0,0-21.32-37.06,3.05-77.96c0,0-14.02,30.13-2.25,70.29C87.47,479.93,78.54,459.9,78.54,459.9z"
			/>
		<path class="st2" d="M87.11,448.86c0,0-5.92-31.01,2.09-46.33c0,0-12.89,12.19-6.44,46.33H87.11z"/>
		<path class="st2" d="M88.34,454.78c0,0-12.19-29.12-7.51-45.77c0,0-10.1,14.59,3.25,46.67L88.34,454.78z"/>
		<path class="st2" d="M42.88,463.98c0,0-12.19-29.12-7.51-45.77c0,0-10.1,14.59,3.25,46.67L42.88,463.98z"/>
		<path class="st2" d="M37.3,451.03c0,0-12.19-29.12-7.51-45.77c0,0-10.1,14.59,3.25,46.67L37.3,451.03z"/>
		<path class="st2" d="M100.93,458.8c0,0-0.15-31.57,10.53-45.17c0,0-14.9,9.63-14.81,44.37L100.93,458.8z"/>
		<path class="st2" d="M110.85,454.93c0,0-0.15-31.57,10.53-45.17c0,0-14.9,9.63-14.81,44.37L110.85,454.93z"/>
		<path class="st2" d="M112.99,453.33c0,0-9.79-30.01-3.78-46.23c0,0-11.24,13.72-0.54,46.78L112.99,453.33z"/>
	</g>
	<g style="clip-path:url(#SVGID_00000080891364423132193650000008888610754537004726_);">
		<path class="st2" d="M7.14,445.91c0,0,0-46.36,31.35-62.07c0,0-30.71,24.36-20.21,66C25.2,477.21,7.14,445.91,7.14,445.91z"/>
		<path class="st2" d="M4.7,453.38c0,0-10.45-46.75,24.12-83.68c0,0-21.68,28.4-21.26,75.59C7.85,477.85,4.7,453.38,4.7,453.38z"/>
		<path class="st2" d="M9.99,467.16c0,0-21.32-41.79,3.05-87.92c0,0-14.02,33.98-2.25,79.26C18.92,489.75,9.99,467.16,9.99,467.16z"
			/>
		<path class="st2" d="M-10.34,464.55c0,0-21.32-41.79,3.05-87.92c0,0-14.02,33.98-2.25,79.26
			C-1.42,487.14-10.34,464.55-10.34,464.55z"/>
		<path class="st2" d="M-8.9,475.1c0,0-26.03-38.25-7.28-87.6c0,0-9.92,35.77,7.06,78.9C2.59,496.16-8.9,475.1-8.9,475.1z"/>
		<path class="st2" d="M-0.65,491.04c0,0-26.03-38.25-7.28-87.6c0,0-9.92,35.77,7.06,78.9C10.84,512.1-0.65,491.04-0.65,491.04z"/>
		<path class="st2" d="M30.09,494.38c0,0-26.03-38.25-7.28-87.6c0,0-9.92,35.77,7.06,78.9C41.58,515.44,30.09,494.38,30.09,494.38z"
			/>
		<path class="st2" d="M31.44,467.16c0,0-21.31-41.8,3.07-87.92c0,0-14.03,33.97-2.27,79.26C40.36,489.76,31.44,467.16,31.44,467.16
			z"/>
		<path class="st2" d="M28.49,484.3c0,0-11.17-46.54,22.82-84.14c0,0-21.23,28.83-20.09,76C32.01,508.71,28.49,484.3,28.49,484.3z"
			/>
		<path class="st2" d="M34.32,461.91c0,0-17.71-43.88,10.42-87.19c0,0-16.81,32.33-8.9,78.66
			C41.31,485.35,34.32,461.91,34.32,461.91z"/>
		<path class="st2" d="M-2.75,455.62c0,0,21.32-41.79-3.05-87.92c0,0,14.02,33.98,2.25,79.26C-11.68,478.21-2.75,455.62-2.75,455.62
			z"/>
		<path class="st2" d="M-11.32,443.16c0,0,5.92-34.96-2.09-52.25c0,0,12.89,13.75,6.44,52.25H-11.32z"/>
		<path class="st2" d="M-12.55,449.84c0,0,12.19-32.83,7.51-51.61c0,0,10.1,16.45-3.25,52.62L-12.55,449.84z"/>
		<path class="st2" d="M32.91,460.21c0,0,12.19-32.83,7.51-51.61c0,0,10.1,16.45-3.25,52.62L32.91,460.21z"/>
		<path class="st2" d="M38.5,445.62c0,0,12.19-32.83,7.51-51.61c0,0,10.1,16.45-3.25,52.62L38.5,445.62z"/>
		<path class="st2" d="M-25.13,454.37c0,0,0.15-35.59-10.53-50.94c0,0,14.9,10.86,14.81,50.04L-25.13,454.37z"/>
		<path class="st2" d="M-35.06,450.01c0,0,0.15-35.59-10.53-50.94c0,0,14.9,10.86,14.81,50.04L-35.06,450.01z"/>
		<path class="st2" d="M-37.2,448.21c0,0,9.79-33.84,3.78-52.13c0,0,11.24,15.48,0.54,52.75L-37.2,448.21z"/>
	</g>
	<g style="clip-path:url(#SVGID_00000080891364423132193650000008888610754537004726_);">
		<path class="st2" d="M570.67,448.03c0,0,0-59.8,45.61-80.07c0,0-44.68,31.42-29.39,85.13
			C596.94,488.41,570.67,448.03,570.67,448.03z"/>
		<path class="st2" d="M567.13,457.66c0,0-15.2-60.3,35.08-107.94c0,0-31.53,36.64-30.92,97.51
			C571.7,489.23,567.13,457.66,567.13,457.66z"/>
		<path class="st2" d="M574.82,475.44c0,0-31.01-53.9,4.44-113.41c0,0-20.39,43.83-3.27,102.24
			C587.8,504.58,574.82,475.44,574.82,475.44z"/>
		<path class="st2" d="M545.24,472.07c0,0-31.01-53.9,4.44-113.41c0,0-20.39,43.83-3.27,102.24
			C558.22,501.22,545.24,472.07,545.24,472.07z"/>
		<path class="st2" d="M547.34,485.68c0,0-37.86-49.34-10.58-113c0,0-14.42,46.14,10.26,101.78
			C564.06,512.85,547.34,485.68,547.34,485.68z"/>
		<path class="st2" d="M559.34,506.24c0,0-37.86-49.34-10.58-113c0,0-14.42,46.14,10.26,101.78
			C576.05,533.41,559.34,506.24,559.34,506.24z"/>
		<path class="st2" d="M604.05,510.54c0,0-37.86-49.34-10.58-113c0,0-14.42,46.14,10.26,101.78
			C620.77,537.72,604.05,510.54,604.05,510.54z"/>
		<path class="st2" d="M606.02,475.44c0,0-31-53.91,4.47-113.41c0,0-20.41,43.82-3.3,102.24
			C618.99,504.58,606.02,475.44,606.02,475.44z"/>
		<path class="st2" d="M601.72,497.55c0,0-16.25-60.03,33.19-108.53c0,0-30.89,37.19-29.22,98.03
			C606.85,529.04,601.72,497.55,601.72,497.55z"/>
		<path class="st2" d="M610.21,468.66c0,0-25.77-56.6,15.16-112.48c0,0-24.45,41.7-12.94,101.47
			C620.37,498.9,610.21,468.66,610.21,468.66z"/>
		<path class="st2" d="M556.28,460.55c0,0,31.01-53.9-4.44-113.41c0,0,20.39,43.83,3.27,102.24
			C543.3,489.69,556.28,460.55,556.28,460.55z"/>
		<path class="st2" d="M543.82,444.48c0,0,8.61-45.1-3.04-67.4c0,0,18.75,17.74,9.37,67.4H543.82z"/>
		<path class="st2" d="M542.03,453.1c0,0,17.73-42.35,10.92-66.58c0,0,14.69,21.22-4.73,67.88L542.03,453.1z"/>
		<path class="st2" d="M608.16,466.48c0,0,17.73-42.35,10.92-66.58c0,0,14.69,21.22-4.73,67.88L608.16,466.48z"/>
		<path class="st2" d="M616.28,447.65c0,0,17.73-42.35,10.92-66.58c0,0,14.69,21.22-4.73,67.88L616.28,447.65z"/>
		<path class="st2" d="M523.72,458.94c0,0,0.22-45.92-15.31-65.71c0,0,21.67,14.01,21.54,64.55L523.72,458.94z"/>
		<path class="st2" d="M509.29,453.31c0,0,0.22-45.92-15.31-65.71c0,0,21.67,14.01,21.54,64.55L509.29,453.31z"/>
		<path class="st2" d="M506.18,450.99c0,0,14.24-43.65,5.5-67.24c0,0,16.36,19.96,0.78,68.04L506.18,450.99z"/>
	</g>
	<g style="clip-path:url(#SVGID_00000080891364423132193650000008888610754537004726_);">
		<path class="st2" d="M611.22,444.75c0,0,0-49.72,37.92-66.58c0,0-37.15,26.13-24.44,70.79
			C633.06,478.33,611.22,444.75,611.22,444.75z"/>
		<path class="st2" d="M608.27,452.76c0,0-12.64-50.15,29.17-89.76c0,0-26.22,30.47-25.71,81.08
			C612.07,479.01,608.27,452.76,608.27,452.76z"/>
		<path class="st2" d="M614.66,467.54c0,0-25.79-44.82,3.69-94.3c0,0-16.96,36.45-2.72,85.02
			C625.46,491.78,614.66,467.54,614.66,467.54z"/>
		<path class="st2" d="M590.07,464.75c0,0-25.79-44.82,3.69-94.31c0,0-16.96,36.45-2.72,85.02
			C600.86,488.98,590.07,464.75,590.07,464.75z"/>
		<path class="st2" d="M591.81,476.06c0,0-31.48-41.03-8.8-93.97c0,0-11.99,38.37,8.53,84.63
			C605.72,498.65,591.81,476.06,591.81,476.06z"/>
		<path class="st2" d="M601.79,493.16c0,0-31.48-41.03-8.8-93.97c0,0-11.99,38.37,8.53,84.63
			C615.69,515.75,601.79,493.16,601.79,493.16z"/>
		<path class="st2" d="M638.97,496.74c0,0-31.48-41.03-8.8-93.97c0,0-11.99,38.37,8.53,84.63
			C652.87,519.33,638.97,496.74,638.97,496.74z"/>
		<path class="st2" d="M640.61,467.54c0,0-25.78-44.83,3.72-94.3c0,0-16.97,36.44-2.75,85.02
			C651.4,491.78,640.61,467.54,640.61,467.54z"/>
		<path class="st2" d="M637.03,485.93c0,0-13.51-49.92,27.6-90.25c0,0-25.69,30.92-24.3,81.52
			C641.3,512.12,637.03,485.93,637.03,485.93z"/>
		<path class="st2" d="M644.09,461.91c0,0-21.43-47.07,12.61-93.53c0,0-20.33,34.68-10.76,84.38
			C652.54,487.06,644.09,461.91,644.09,461.91z"/>
		<path class="st2" d="M599.25,455.16c0,0,25.79-44.82-3.69-94.31c0,0,16.96,36.45,2.72,85.02
			C588.45,479.39,599.25,455.16,599.25,455.16z"/>
		<path class="st2" d="M588.88,441.8c0,0,7.16-37.5-2.53-56.04c0,0,15.59,14.75,7.79,56.04H588.88z"/>
		<path class="st2" d="M587.4,448.97c0,0,14.74-35.22,9.08-55.36c0,0,12.21,17.65-3.93,56.45L587.4,448.97z"/>
		<path class="st2" d="M642.39,460.09c0,0,14.74-35.22,9.08-55.36c0,0,12.21,17.65-3.93,56.45L642.39,460.09z"/>
		<path class="st2" d="M649.14,444.43c0,0,14.74-35.22,9.08-55.36c0,0,12.21,17.65-3.93,56.45L649.14,444.43z"/>
		<path class="st2" d="M572.18,453.83c0,0,0.19-38.18-12.73-54.64c0,0,18.02,11.65,17.91,53.68L572.18,453.83z"/>
		<path class="st2" d="M560.17,449.15c0,0,0.19-38.18-12.73-54.64c0,0,18.02,11.65,17.91,53.68L560.17,449.15z"/>
		<path class="st2" d="M557.58,447.21c0,0,11.84-36.3,4.57-55.92c0,0,13.6,16.6,0.65,56.58L557.58,447.21z"/>
	</g>
	<g style="clip-path:url(#SVGID_00000080891364423132193650000008888610754537004726_);">
		<path class="st2" d="M476.96,443.69c0,0,0-41.11,31.35-55.04c0,0-30.71,21.6-20.21,58.53
			C495.02,471.44,476.96,443.69,476.96,443.69z"/>
		<path class="st2" d="M474.52,450.31c0,0-10.45-41.46,24.12-74.2c0,0-21.68,25.19-21.26,67.03
			C477.67,472.01,474.52,450.31,474.52,450.31z"/>
		<path class="st2" d="M479.81,462.53c0,0-21.32-37.06,3.05-77.96c0,0-14.02,30.13-2.25,70.29
			C488.73,482.56,479.81,462.53,479.81,462.53z"/>
		<path class="st2" d="M459.47,460.22c0,0-21.32-37.06,3.05-77.96c0,0-14.02,30.13-2.25,70.29
			C468.4,480.25,459.47,460.22,459.47,460.22z"/>
		<path class="st2" d="M460.92,469.57c0,0-26.03-33.92-7.28-77.68c0,0-9.92,31.72,7.06,69.97
			C472.41,488.25,460.92,469.57,460.92,469.57z"/>
		<path class="st2" d="M469.17,483.7c0,0-26.03-33.92-7.28-77.68c0,0-9.92,31.72,7.06,69.97
			C480.66,502.38,469.17,483.7,469.17,483.7z"/>
		<path class="st2" d="M499.91,486.66c0,0-26.03-33.92-7.28-77.68c0,0-9.92,31.72,7.06,69.97
			C511.4,505.34,499.91,486.66,499.91,486.66z"/>
		<path class="st2" d="M501.26,462.53c0,0-21.31-37.06,3.07-77.96c0,0-14.03,30.13-2.27,70.29
			C510.18,482.57,501.26,462.53,501.26,462.53z"/>
		<path class="st2" d="M498.3,477.73c0,0-11.17-41.27,22.82-74.61c0,0-21.23,25.56-20.09,67.39
			C501.83,499.38,498.3,477.73,498.3,477.73z"/>
		<path class="st2" d="M504.14,457.87c0,0-17.71-38.91,10.42-77.32c0,0-16.81,28.67-8.9,69.76
			C511.13,478.66,504.14,457.87,504.14,457.87z"/>
		<path class="st2" d="M467.07,452.29c0,0,21.32-37.06-3.05-77.96c0,0,14.02,30.13,2.25,70.29
			C458.14,472.33,467.07,452.29,467.07,452.29z"/>
		<path class="st2" d="M458.5,441.25c0,0,5.92-31.01-2.09-46.33c0,0,12.89,12.19,6.44,46.33H458.5z"/>
		<path class="st2" d="M457.27,447.17c0,0,12.19-29.12,7.51-45.77c0,0,10.1,14.59-3.25,46.67L457.27,447.17z"/>
		<path class="st2" d="M502.73,456.37c0,0,12.19-29.12,7.51-45.77c0,0,10.1,14.59-3.25,46.67L502.73,456.37z"/>
		<path class="st2" d="M508.31,443.42c0,0,12.19-29.12,7.51-45.77c0,0,10.1,14.59-3.25,46.67L508.31,443.42z"/>
		<path class="st2" d="M444.68,451.19c0,0,0.15-31.57-10.53-45.17c0,0,14.9,9.63,14.81,44.37L444.68,451.19z"/>
		<path class="st2" d="M434.76,447.32c0,0,0.15-31.57-10.53-45.17c0,0,14.9,9.63,14.81,44.37L434.76,447.32z"/>
		<path class="st2" d="M432.62,445.72c0,0,9.79-30.01,3.78-46.23c0,0,11.24,13.72,0.54,46.78L432.62,445.72z"/>
	</g>
	<g style="clip-path:url(#SVGID_00000080891364423132193650000008888610754537004726_);">
		<path class="st2" d="M412,452.89c0,0,0-41.11,31.35-55.04c0,0-30.71,21.6-20.21,58.53C430.06,480.64,412,452.89,412,452.89z"/>
		<path class="st2" d="M409.56,459.5c0,0-10.45-41.46,24.12-74.2c0,0-21.68,25.19-21.26,67.03
			C412.71,481.21,409.56,459.5,409.56,459.5z"/>
		<path class="st2" d="M414.85,471.73c0,0-21.32-37.06,3.05-77.96c0,0-14.02,30.13-2.25,70.29
			C423.77,491.76,414.85,471.73,414.85,471.73z"/>
		<path class="st2" d="M394.52,469.42c0,0-21.32-37.06,3.05-77.96c0,0-14.02,30.13-2.25,70.29
			C403.44,489.45,394.52,469.42,394.52,469.42z"/>
		<path class="st2" d="M395.96,478.77c0,0-26.03-33.92-7.28-77.68c0,0-9.92,31.72,7.06,69.97
			C407.45,497.45,395.96,478.77,395.96,478.77z"/>
		<path class="st2" d="M404.21,492.9c0,0-26.03-33.92-7.28-77.68c0,0-9.92,31.72,7.06,69.97C415.7,511.58,404.21,492.9,404.21,492.9
			z"/>
		<path class="st2" d="M434.95,495.86c0,0-26.03-33.92-7.28-77.68c0,0-9.92,31.72,7.06,69.97
			C446.44,514.54,434.95,495.86,434.95,495.86z"/>
		<path class="st2" d="M436.3,471.73c0,0-21.31-37.06,3.07-77.96c0,0-14.03,30.13-2.27,70.29
			C445.22,491.76,436.3,471.73,436.3,471.73z"/>
		<path class="st2" d="M433.34,486.93c0,0-11.17-41.27,22.82-74.61c0,0-21.23,25.56-20.09,67.39
			C436.87,508.58,433.34,486.93,433.34,486.93z"/>
		<path class="st2" d="M439.18,467.07c0,0-17.71-38.91,10.42-77.32c0,0-16.81,28.67-8.9,69.76
			C446.17,487.86,439.18,467.07,439.18,467.07z"/>
		<path class="st2" d="M402.11,461.49c0,0,21.32-37.06-3.05-77.96c0,0,14.02,30.13,2.25,70.29
			C393.18,481.52,402.11,461.49,402.11,461.49z"/>
		<path class="st2" d="M393.54,450.45c0,0,5.92-31.01-2.09-46.33c0,0,12.89,12.19,6.44,46.33H393.54z"/>
		<path class="st2" d="M392.31,456.37c0,0,12.19-29.12,7.51-45.77c0,0,10.1,14.59-3.25,46.67L392.31,456.37z"/>
		<path class="st2" d="M437.77,465.57c0,0,12.19-29.12,7.51-45.77c0,0,10.1,14.59-3.25,46.67L437.77,465.57z"/>
		<path class="st2" d="M443.35,452.62c0,0,12.19-29.12,7.51-45.77c0,0,10.1,14.59-3.25,46.67L443.35,452.62z"/>
		<path class="st2" d="M379.73,460.39c0,0,0.15-31.57-10.53-45.17c0,0,14.9,9.63,14.81,44.37L379.73,460.39z"/>
		<path class="st2" d="M369.8,456.52c0,0,0.15-31.57-10.53-45.17c0,0,14.9,9.63,14.81,44.37L369.8,456.52z"/>
		<path class="st2" d="M367.66,454.92c0,0,9.79-30.01,3.78-46.23c0,0,11.24,13.72,0.54,46.78L367.66,454.92z"/>
	</g>
	<g style="clip-path:url(#SVGID_00000080891364423132193650000008888610754537004726_);">
		<path class="st2" d="M347.73,453.8c0,0-3.7-21.93,11.77-32.18c0,0-14.44,14.28-5.51,33.04
			C359.86,466.99,347.73,453.8,347.73,453.8z"/>
		<path class="st2" d="M347.03,457.55c0,0-9.3-21.17,6.19-41.75c0,0-9.3,15.39-5.31,37.67
			C350.66,468.85,347.03,457.55,347.03,457.55z"/>
		<path class="st2" d="M350.95,463.6c0,0-14.71-17.85-5.38-41.86c0,0-4.77,17.33,5.12,37.69
			C357.51,473.48,350.95,463.6,350.95,463.6z"/>
		<path class="st2" d="M339.89,464.19c0,0-14.71-17.85-5.38-41.86c0,0-4.77,17.33,5.12,37.69
			C346.45,474.08,339.89,464.19,339.89,464.19z"/>
		<path class="st2" d="M341.5,469.05c0,0-16.93-15.75-10.87-40.78c0,0-2.44,17.81,10.06,36.69
			C349.31,477.98,341.5,469.05,341.5,469.05z"/>
		<path class="st2" d="M347.17,475.85c0,0-16.93-15.75-10.87-40.78c0,0-2.44,17.81,10.06,36.69
			C354.98,484.78,347.17,475.85,347.17,475.85z"/>
		<path class="st2" d="M363.84,474.67c0,0-16.93-15.75-10.87-40.78c0,0-2.44,17.81,10.06,36.69
			C371.65,483.6,363.84,474.67,363.84,474.67z"/>
		<path class="st2" d="M362.39,461.67c0,0-14.7-17.85-5.37-41.86c0,0-4.77,17.33,5.11,37.7
			C368.95,471.56,362.39,461.67,362.39,461.67z"/>
		<path class="st2" d="M362.18,470.04c0,0-9.67-21.01,5.46-41.85c0,0-9.03,15.55-4.65,37.75C366,481.27,362.18,470.04,362.18,470.04
			z"/>
		<path class="st2" d="M363.51,458.93c0,0-12.95-19.16-1.39-42.18c0,0-6.39,16.8,1.53,38.01
			C369.1,469.39,363.51,458.93,363.51,458.93z"/>
		<path class="st2" d="M343.23,459.28c0,0,8.04-21.68-8.64-41.31c0,0,10.19,14.81,7.52,37.29
			C340.27,470.77,343.23,459.28,343.23,459.28z"/>
		<path class="st2" d="M337.66,454.16c0,0,0.37-17.07-5.28-24.53c0,0,7.97,5.34,7.6,24.14L337.66,454.16z"/>
		<path class="st2" d="M337.54,457.43c0,0,3.88-16.63-0.11-25.09c0,0,6.7,6.87,2.46,25.18L337.54,457.43z"/>
		<path class="st2" d="M362.62,458.25c0,0,3.88-16.63-0.11-25.09c0,0,6.7,6.87,2.46,25.18L362.62,458.25z"/>
		<path class="st2" d="M364.43,450.84c0,0,3.88-16.63-0.11-25.09c0,0,6.7,6.87,2.46,25.18L364.43,450.84z"/>
		<path class="st2" d="M331.19,460.71c0,0-2.76-16.85-9.68-23.15c0,0,8.81,3.8,11.89,22.34L331.19,460.71z"/>
		<path class="st2" d="M325.55,459.54c0,0-2.76-16.85-9.68-23.15c0,0,8.81,3.8,11.89,22.34L325.55,459.54z"/>
		<path class="st2" d="M324.26,458.88c0,0,2.52-16.89-2.14-25c0,0,7.23,6.31,4.49,24.9L324.26,458.88z"/>
	</g>
	<g style="clip-path:url(#SVGID_00000080891364423132193650000008888610754537004726_);">
		<path class="st2" d="M298.42,437.44c0,0,6.83-32.01-21.77-46.98c0,0,26.7,20.85,10.19,48.23
			C276,456.68,298.42,437.44,298.42,437.44z"/>
		<path class="st2" d="M299.72,442.91c0,0,17.2-30.91-11.44-60.95c0,0,17.19,22.46,9.82,54.99
			C293.01,459.4,299.72,442.91,299.72,442.91z"/>
		<path class="st2" d="M292.47,451.74c0,0,27.19-26.06,9.96-61.11c0,0,8.81,25.31-9.47,55.03
			C280.34,466.17,292.47,451.74,292.47,451.74z"/>
		<path class="st2" d="M312.91,452.61c0,0,27.19-26.06,9.95-61.11c0,0,8.81,25.31-9.47,55.03
			C300.78,467.04,312.91,452.61,312.91,452.61z"/>
		<path class="st2" d="M309.93,459.7c0,0,31.31-22.99,20.09-59.54c0,0,4.5,26-18.59,53.56C295.49,472.74,309.93,459.7,309.93,459.7z
			"/>
		<path class="st2" d="M299.45,469.62c0,0,31.31-22.99,20.09-59.54c0,0,4.5,26-18.59,53.56
			C285.01,482.66,299.45,469.62,299.45,469.62z"/>
		<path class="st2" d="M268.64,467.89c0,0,31.31-23,20.09-59.54c0,0,4.5,26-18.59,53.56C254.2,480.93,268.64,467.89,268.64,467.89z"
			/>
		<path class="st2" d="M271.32,448.92c0,0,27.18-26.07,9.93-61.12c0,0,8.82,25.3-9.45,55.03
			C259.2,463.35,271.32,448.92,271.32,448.92z"/>
		<path class="st2" d="M271.71,461.15c0,0,17.88-30.67-10.1-61.1c0,0,16.69,22.7,8.6,55.12
			C264.63,477.54,271.71,461.15,271.71,461.15z"/>
		<path class="st2" d="M269.25,444.92c0,0,23.94-27.98,2.58-61.58c0,0,11.81,24.53-2.82,55.49
			C258.91,460.19,269.25,444.92,269.25,444.92z"/>
		<path class="st2" d="M306.74,445.44c0,0-14.86-31.66,15.97-60.31c0,0-18.83,21.62-13.9,54.44
			C312.21,462.21,306.74,445.44,306.74,445.44z"/>
		<path class="st2" d="M317.03,437.96c0,0-0.69-24.92,9.76-35.81c0,0-14.74,7.8-14.06,35.24L317.03,437.96z"/>
		<path class="st2" d="M317.26,442.74c0,0-7.18-24.28,0.2-36.63c0,0-12.38,10.04-4.55,36.77L317.26,442.74z"/>
		<path class="st2" d="M270.9,443.93c0,0-7.18-24.28,0.2-36.63c0,0-12.38,10.04-4.55,36.77L270.9,443.93z"/>
		<path class="st2" d="M267.54,433.12c0,0-7.18-24.28,0.2-36.63c0,0-12.38,10.04-4.55,36.77L267.54,433.12z"/>
		<path class="st2" d="M329,447.52c0,0,5.1-24.6,17.89-33.79c0,0-16.29,5.54-21.98,32.61L329,447.52z"/>
		<path class="st2" d="M339.42,445.81c0,0,5.1-24.6,17.89-33.79c0,0-16.3,5.54-21.98,32.61L339.42,445.81z"/>
		<path class="st2" d="M341.8,444.84c0,0-4.67-24.65,3.96-36.49c0,0-13.37,9.21-8.31,36.36L341.8,444.84z"/>
	</g>
	<path style="clip-path:url(#SVGID_00000080891364423132193650000008888610754537004726_);fill:#043246;" d="M648.82,180.35
		l-0.47,7.13l4.58,0.3l-5.62,15.49l11.03-4.39l-5.91,8.31l5.35,0.35l-0.4,6.11c0,0,5.02-0.02,9.72-4.43c0,0-0.01,9.76-9.01,12.63
		c0,0,3.51-0.71,9-2.87c0,0-2.73,8.01-9.31,7.58c0,0-3.26,1.68,6.58,0.43c0,0-3.78,4.79-16.55,2.7c0,0,13.08,6.93,24.12,1.78
		c0,0-2.17,4.38-5.41,5.74c0,0,2.34,1.1,6.02-0.55c0,0-3.89,4.89-13.33,1.65c0,0,1.29,2.81,4.73,3.04c3.45,0.23-2.53,1.83-9.61-2.2
		s-8-2.83-8-2.83s-2.09,6.26,9.39,7.22c11.48,0.96,20.46,1.65,21,1.37c0.54-0.28-0.45,3.75-9.4,5.68c0,0,2.51,1.74,5.64,0.37
		c0,0,0.52,3.29-5.02,3.03c-5.54-0.26-5.85,1.19-3.13,1.26c2.72,0.07-0.48,2.59-3.74,2.59c-3.25,0-5.3,2.38-1.37,2.53
		c3.92,0.15,11.6-3.33,11.6-3.33s-0.79,4.05-2.46,3.93c-1.67-0.11,4.62,0.61,7.08-1.95c2.45-2.57-1,3.71-4.31,4.55
		s9.04,1.33,10.58-1.41c0,0-1.23,6.01-8.85,6.98c-7.62,0.97,0.27,2.22,0.27,2.22s-4.35,4.02-10.73,3.6c0,0-4.45,2.33,0.35,2.65
		c4.81,0.31,9.28-0.65,9.28-0.65s-0.05,2.41-5.89,3.5c-5.84,1.09,11.27,0.95,14.51-1.99c0,0-3.75,6.05-11.03,8.2
		c0,0,5.16,1.28,8.7-1.42c0,0-3.57,4.8-11.07,5.57c0,0-2.1,3.22,5.59,2.78c7.69-0.44,12.03-1,12.03-1s-2.72,4.65-8.07,4.72
		c0,0,2.74,1.44,5.6,1c0,0-2.97,3.69-10.14,2.69l-7.26-1.31c0,0-0.03,5.24,5.73,5.52c5.75,0.27,2.36,2.36-2.55,2.04
		c-4.91-0.32,7.56,4.8,12.89,3.47s-0.76,2.05-0.76,2.05s4.94,3.05,7.68,1.24c2.74-1.81-5.28,11.76-17.9,7.4
		c-12.62-4.36-0.26,2.33-0.26,2.33s-7.86-1.77-12.17-4.89s1.64,5.35,6.96,5.91s1.14,3.43,1.14,3.43s12.32,7.31,25.01,5.83
		l-6.11,3.59l7.82,2.4L677.44,340l6.34,2.51l-10.81,1.6l6.48,0.42l-18.51,0.68c0,0-6.35,3.99,8.49,4.96
		c14.84,0.97,24.45,1.6,24.45,1.6s3.44,4.93-2.2,4.56c-5.64-0.37,2.76,2.7,2.76,2.7s-5.2-0.76-7.52-0.49
		c-2.33,0.27,3.79,2.98,3.79,2.98s-4.56-0.93-9.4-0.61c-4.85,0.31-2.59,4.24-2.59,4.24l-4.39-0.29c0,0,1.4,4.29,11.85,4.97
		c10.45,0.68,18.6,1.22,18.6,1.22s-0.05,7.13-9.03,6.54c0,0,4.59,3.66,8.35,3.9c0,0-8.5,1.54-14.29,0.32l6.31,2.93l-10.03-0.66
		c0,0-1.15,4.75,9.09,5.42c10.24,0.67,4.28,1.96,4.28,1.96s-0.8,2.68,2.33,2.88c3.13,0.2-4.48,1.18-9.29,0.86
		c-4.81-0.31,2.87,4.18,2.87,4.18l-9.19-0.6c0,0-7.3,8.97,7.23,11.39c0,0,7.18,2.57,13.58,0.89c0,0-2.6,1.3-6.41,1.68
		c0,0,4.95,4.52,12.22,2.48c0,0-1.76,4.5-9.15,5.07c0,0,3.21,2.31,8.71,1.62c0,0-6.5,6.29-17.69,4.09c0,0,0.73,4.87,6.37,5.24
		c5.64,0.37-19.72,3.12-27.37-1.79l11.33,6.41c0,0-17.8,2.61-27.16-8.28l2.97,5.86c0,0-12.61-6.07-17.37-10.37
		c0,0-6.76,10.36-17.63,9.6l-1.28-2.86c0,0-3.77,6.26-13.38,5.63l5.08-7.01c0,0-4.43,6.85-17.4,6.21l6.22-5.26
		c0,0-6.84,8.37-20.22,4.34l6.89-2.7c0,0-15.67,2.12-22.63-3.79c0,0,12.66-1.06,20.71-5.36c8.05-4.3,11.64-7.84,11.64-7.84
		s-14.64,8.91-26.71,4.13l6.66-2.29c0,0-12.99,2.93-15.52-0.18l7.74-2.85l-5.48-2.88c0,0,3.62-0.81,8.97-2.35l-5.91-5.84
		c0,0,2.88,0.82,8.57,0.56c5.68-0.26,25.52-8.4,25.52-8.4l-13.65,0.16l5.5-3.84c0,0-14.77,4.49-20.49,2.02l8.23-3.87
		c0,0-11.25,5.14-15.47,2.35l6.62-5.02l-8.14-0.74c0,0,34.09-7.84,37.27-14.77c0,0-12.73,5.25-20.86,4.51l5.12-4.49
		c0,0-8.67,4.26-13.63,3.1l6.27-6.1l-6.92-0.03l3.02-4.42l-7.44,1.4c0,0,15.26-5.39,20.48-11.34c0,0-8.05,1.15-13.44,0.17
		c0,0,18.17-8.26,20.22-14c0,0-7.76,6.42-16.29,5.23l18.27-13.08l-9.57,1.89l14.79-11.2c0,0,11.82-7.41-1.3-5.75
		c-13.12,1.66-15.04-4.34-15.04-4.34l9.9-0.61l-11.77-2.87c0,0,18.64,0.59,25.42-3.58c6.78-4.17,8.65-10.35,8.65-10.35
		s-7.64,7.69-17.25,7.06l2.75-3.6c0,0-9.7,3.98-14.09,3.7l16.61-10.04l-9.12,1.5c0,0,11.71-2.59,20.78-9.76
		c9.07-7.17,7.54-9.37,7.54-9.37s-11.32,6.19-20.32,5.81c-9-0.38,0.68-3.94,0.68-3.94l-11.45-1.38c0,0,21.31-4.9,29.45-10.67
		c8.14-5.76-0.02-2.94-4.53-1.35c-4.51,1.59-14.14,1.17-17.45,0.54s18.89-6.53,24.72-12.23c5.83-5.7,3.99-6.09-0.98-4.26
		c-19.48,7.17-16.78,0.6-17.82,0.53s9.97-2.31,9.97-2.31l-9.5-4.74c0,0,13.62-1.68,16.23-2.68c5.59-2.15,8.39-8.32,1.84-7.97
		c-12.51,0.67-15.89-2.98-15.89-2.98l16.45-4.78l-9.83-2.31l15.21-2.43c0,0-13.17-5.39-12.98-8.32c0.19-2.93,7.76,3.24,16.12,3.78
		c0,0-1.29-2.81-4.06-8.45c-2.78-5.64,1.53-0.95,4.67-0.74c3.13,0.21-0.18-6.94-0.18-6.94s-0.03,0.42,3.73,0.66s-1.62-4.09-1.54-8.5
		c0.08-4.4,1.79-1.77,3.78,0.04C646.53,190.03,648.82,180.35,648.82,180.35z"/>
	<path style="clip-path:url(#SVGID_00000080891364423132193650000008888610754537004726_);fill:#043246;" d="M133.04,295.56
		l-0.47,7.13l4.58,0.3l-5.62,15.49l11.03-4.39l-5.91,8.31l5.35,0.35l-0.4,6.11c0,0,5.02-0.02,9.72-4.43c0,0-0.01,9.76-9.01,12.63
		c0,0,3.51-0.71,9-2.87c0,0-2.73,8.01-9.31,7.58c0,0-3.26,1.68,6.58,0.43c0,0-3.78,4.79-16.55,2.7c0,0,13.08,6.93,24.12,1.78
		c0,0-2.18,4.38-5.41,5.74c0,0,2.34,1.1,6.02-0.55c0,0-3.89,4.89-13.33,1.65c0,0,1.29,2.81,4.73,3.04c3.45,0.23-2.53,1.83-9.61-2.2
		c-7.08-4.03-8-2.83-8-2.83s-2.09,6.26,9.39,7.22c11.48,0.96,20.46,1.65,21,1.37c0.54-0.28-0.46,3.75-9.4,5.68
		c0,0,2.51,1.74,5.64,0.37c0,0,0.52,3.29-5.02,3.03c-5.54-0.26-5.85,1.19-3.13,1.26c2.72,0.07-0.48,2.59-3.74,2.59
		c-3.25,0-5.3,2.38-1.37,2.53c3.92,0.15,11.6-3.33,11.6-3.33s-0.79,4.05-2.46,3.93c-1.67-0.11,4.62,0.61,7.08-1.95
		c2.45-2.57-1,3.71-4.31,4.55c-3.31,0.83,9.04,1.33,10.58-1.41c0,0-1.23,6.01-8.85,6.98c-7.62,0.97,0.27,2.22,0.27,2.22
		s-4.35,4.02-10.73,3.6c0,0-4.45,2.33,0.35,2.65c4.81,0.31,9.28-0.65,9.28-0.65s-0.05,2.41-5.89,3.5s11.27,0.95,14.51-1.99
		c0,0-3.75,6.05-11.03,8.2c0,0,5.16,1.28,8.7-1.42c0,0-3.57,4.8-11.07,5.57c0,0-2.1,3.22,5.59,2.78c7.69-0.44,12.03-1,12.03-1
		s-2.72,4.65-8.07,4.72c0,0,2.74,1.44,5.6,1c0,0-2.97,3.69-10.14,2.69l-7.26-1.31c0,0-0.03,5.24,5.73,5.52s2.36,2.36-2.55,2.04
		c-4.91-0.32,7.56,4.8,12.89,3.47c5.33-1.33-0.76,2.05-0.76,2.05s4.94,3.05,7.68,1.24s-5.28,11.76-17.9,7.4
		c-12.62-4.36-0.26,2.33-0.26,2.33s-7.86-1.77-12.17-4.89c-4.31-3.11,1.64,5.35,6.96,5.91c5.32,0.56,1.14,3.43,1.14,3.43
		s12.32,7.31,25.01,5.83l-6.11,3.59l7.82,2.4l-15.53,0.03l6.34,2.51l-10.81,1.6l6.48,0.42l-18.51,0.68c0,0-6.35,3.99,8.49,4.96
		c14.84,0.97,24.45,1.6,24.45,1.6s3.44,4.93-2.2,4.56c-5.64-0.37,2.76,2.7,2.76,2.7s-5.2-0.76-7.52-0.49
		c-2.33,0.27,3.79,2.98,3.79,2.98s-4.56-0.93-9.4-0.61s-2.59,4.24-2.59,4.24l-4.39-0.29c0,0,1.4,4.29,11.85,4.97
		c10.45,0.68,18.6,1.22,18.6,1.22s-0.05,7.13-9.03,6.54c0,0,4.59,3.66,8.35,3.9c0,0-8.5,1.54-14.29,0.32l6.31,2.93l-10.03-0.66
		c0,0-1.15,4.75,9.09,5.42c10.24,0.67,4.28,1.96,4.28,1.96s-0.8,2.68,2.33,2.88c3.13,0.2-4.48,1.18-9.29,0.86
		c-4.81-0.31,2.87,4.18,2.87,4.18l-9.19-0.6c0,0-7.3,8.97,7.23,11.39c0,0,7.18,2.57,13.58,0.89c0,0-2.6,1.3-6.41,1.68
		c0,0,4.95,4.52,12.22,2.48c0,0-1.76,4.5-9.15,5.07c0,0,3.21,2.31,8.71,1.62c0,0-6.5,6.29-17.69,4.09c0,0,0.73,4.87,6.37,5.24
		c5.64,0.37-19.72,3.12-27.37-1.79l11.33,6.41c0,0-17.8,2.61-27.16-8.28l2.97,5.86c0,0-12.61-6.07-17.37-10.37
		c0,0-6.76,10.36-17.63,9.6l-1.28-2.86c0,0-3.77,6.26-13.38,5.63l5.08-7.01c0,0-4.43,6.85-17.4,6.21l6.22-5.26
		c0,0-6.84,8.37-20.22,4.34l6.89-2.7c0,0-15.67,2.12-22.63-3.79c0,0,12.66-1.06,20.71-5.36c8.05-4.3,11.64-7.84,11.64-7.84
		s-14.64,8.91-26.71,4.13l6.66-2.29c0,0-12.99,2.93-15.52-0.18l7.74-2.85l-5.48-2.88c0,0,3.62-0.81,8.97-2.35l-5.91-5.84
		c0,0,2.88,0.82,8.57,0.56c5.68-0.26,25.52-8.4,25.52-8.4l-13.65,0.16l5.5-3.84c0,0-14.77,4.49-20.49,2.02l8.23-3.87
		c0,0-11.25,5.14-15.47,2.35l6.62-5.02l-8.14-0.74c0,0,34.09-7.84,37.27-14.77c0,0-12.73,5.25-20.86,4.51l5.12-4.49
		c0,0-8.67,4.26-13.63,3.1l6.27-6.1l-6.92-0.03l3.02-4.42l-7.44,1.4c0,0,15.26-5.39,20.48-11.34c0,0-8.05,1.15-13.44,0.17
		c0,0,18.17-8.26,20.22-14c0,0-7.76,6.42-16.29,5.23l18.27-13.08l-9.57,1.89l14.79-11.2c0,0,11.82-7.41-1.3-5.75
		c-13.12,1.66-15.04-4.34-15.04-4.34l9.9-0.61l-11.77-2.87c0,0,18.64,0.59,25.42-3.58c6.78-4.17,8.65-10.35,8.65-10.35
		s-7.64,7.69-17.25,7.06l2.75-3.6c0,0-9.7,3.98-14.09,3.7l16.61-10.04l-9.12,1.5c0,0,11.71-2.59,20.79-9.76
		c9.07-7.17,7.54-9.37,7.54-9.37s-11.32,6.19-20.32,5.81c-9-0.38,0.68-3.94,0.68-3.94l-11.45-1.38c0,0,21.31-4.9,29.45-10.67
		s-0.02-2.94-4.53-1.35c-4.51,1.59-14.14,1.17-17.45,0.54c-3.32-0.64,18.89-6.53,24.72-12.23c5.83-5.7,3.99-6.09-0.98-4.26
		c-19.48,7.17-16.78,0.6-17.82,0.53s9.97-2.31,9.97-2.31l-9.5-4.74c0,0,13.62-1.68,16.23-2.68c5.59-2.15,8.39-8.32,1.84-7.97
		c-12.51,0.67-15.89-2.98-15.89-2.98l16.45-4.78l-9.83-2.31l15.21-2.43c0,0-13.17-5.39-12.98-8.32c0.19-2.93,7.76,3.24,16.12,3.78
		c0,0-1.29-2.81-4.06-8.45c-2.78-5.64,1.53-0.95,4.67-0.74c3.13,0.2-0.18-6.94-0.18-6.94s-0.03,0.42,3.73,0.66s-1.62-4.09-1.54-8.5
		c0.08-4.4,1.79-1.77,3.78,0.04C130.75,305.24,133.04,295.56,133.04,295.56z"/>
	<path style="clip-path:url(#SVGID_00000080891364423132193650000008888610754537004726_);fill:#043246;" d="M-10.37,77.61
		l-0.56,8.64l5.55,0.36l-6.8,18.76l13.36-5.32l-7.16,10.06l6.48,0.42l-0.48,7.4c0,0,6.08-0.02,11.77-5.37c0,0-0.01,11.82-10.92,15.3
		c0,0,4.25-0.87,10.91-3.48c0,0-3.3,9.7-11.28,9.18c0,0-3.95,2.03,7.97,0.52c0,0-4.57,5.8-20.05,3.27c0,0,15.85,8.39,29.22,2.16
		c0,0-2.64,5.3-6.56,6.95c0,0,2.84,1.33,7.29-0.67c0,0-4.71,5.92-16.15,1.99c0,0,1.56,3.41,5.73,3.68
		c4.18,0.27-3.07,2.21-11.65-2.67s-9.69-3.43-9.69-3.43s-2.53,7.59,11.38,8.75c13.91,1.16,24.79,2,25.44,1.66
		c0.66-0.34-0.55,4.54-11.38,6.88c0,0,3.04,2.11,6.84,0.45c0,0,0.63,3.98-6.09,3.67c-6.72-0.31-7.09,1.44-3.79,1.53
		c3.3,0.09-0.59,3.14-4.53,3.14c-3.94,0-6.42,2.89-1.66,3.07c4.75,0.18,14.06-4.04,14.06-4.04s-0.96,4.9-2.98,4.77
		c-2.03-0.14,5.6,0.74,8.57-2.37c2.97-3.11-1.21,4.5-5.22,5.51c-4.01,1.01,10.95,1.61,12.82-1.7c0,0-1.49,7.28-10.72,8.45
		c-9.23,1.18,0.33,2.69,0.33,2.69s-5.28,4.87-13,4.36c0,0-5.4,2.83,0.43,3.21c5.82,0.38,11.24-0.79,11.24-0.79s-0.06,2.92-7.14,4.24
		c-7.08,1.32,13.65,1.15,17.57-2.41c0,0-4.55,7.33-13.36,9.93c0,0,6.25,1.55,10.54-1.73c0,0-4.32,5.82-13.41,6.75
		c0,0-2.54,3.9,6.77,3.37c9.32-0.54,14.57-1.21,14.57-1.21s-3.29,5.63-9.78,5.72c0,0,3.32,1.74,6.79,1.21c0,0-3.6,4.47-12.29,3.26
		l-8.79-1.59c0,0-0.03,6.35,6.94,6.68s2.86,2.86-3.09,2.47c-5.95-0.39,9.15,5.81,15.62,4.2c6.46-1.61-0.93,2.48-0.93,2.48
		s5.99,3.7,9.31,1.5c3.32-2.2-6.4,14.25-21.69,8.96c-15.29-5.28-0.31,2.82-0.31,2.82s-9.52-2.15-14.74-5.92
		c-5.22-3.77,1.99,6.49,8.43,7.16c6.44,0.68,1.38,4.16,1.38,4.16s14.93,8.86,30.3,7.07l-7.4,4.35l9.47,2.91l-18.82,0.04l7.68,3.04
		l-13.09,1.94l7.85,0.51l-22.43,0.82c0,0-7.69,4.84,10.29,6.01c17.98,1.18,29.62,1.94,29.62,1.94s4.17,5.98-2.66,5.53
		c-6.84-0.45,3.35,3.27,3.35,3.27s-6.3-0.92-9.11-0.6c-2.82,0.32,4.6,3.61,4.6,3.61s-5.52-1.12-11.39-0.74
		c-5.87,0.38-3.13,5.13-3.13,5.13l-5.32-0.35c0,0,1.69,5.2,14.35,6.02c12.66,0.83,22.53,1.47,22.53,1.47s-0.06,8.64-10.94,7.93
		c0,0,5.57,4.43,10.12,4.73c0,0-10.3,1.87-17.32,0.39l7.65,3.55l-12.15-0.79c0,0-1.39,5.76,11.01,6.57
		c12.41,0.81,5.18,2.37,5.18,2.37s-0.97,3.24,2.82,3.49c3.8,0.25-5.43,1.42-11.26,1.04s3.48,5.06,3.48,5.06l-11.14-0.73
		c0,0-8.85,10.86,8.76,13.79c0,0,8.7,3.11,16.46,1.08c0,0-3.15,1.57-7.76,2.04c0,0,6,5.48,14.8,3c0,0-2.14,5.45-11.08,6.14
		c0,0,3.89,2.8,10.55,1.96c0,0-7.87,7.62-21.43,4.96c0,0,0.89,5.91,7.72,6.35s-23.89,3.78-33.17-2.17l13.73,7.76
		c0,0-21.56,3.17-32.9-10.03l3.6,7.1c0,0-15.28-7.36-21.04-12.56c0,0-8.19,12.55-21.35,11.63l-1.55-3.47c0,0-4.56,7.58-16.21,6.82
		l6.15-8.5c0,0-5.37,8.29-21.09,7.52l7.54-6.37c0,0-8.29,10.14-24.5,5.26l8.35-3.27c0,0-18.98,2.57-27.41-4.59
		c0,0,15.34-1.29,25.09-6.5s14.1-9.5,14.1-9.5s-17.74,10.79-32.36,5l8.06-2.78c0,0-15.74,3.55-18.8-0.21l9.38-3.45l-6.64-3.49
		c0,0,4.39-0.98,10.86-2.85l-7.16-7.08c0,0,3.49,0.99,10.38,0.68s30.92-10.18,30.92-10.18l-16.54,0.19l6.66-4.65
		c0,0-17.9,5.44-24.82,2.44l9.97-4.69c0,0-13.63,6.23-18.75,2.84l8.03-6.09l-9.86-0.9c0,0,41.3-9.5,45.16-17.9
		c0,0-15.42,6.37-25.27,5.47l6.2-5.44c0,0-10.51,5.16-16.52,3.75l7.6-7.38l-8.39-0.04l3.66-5.35l-9.01,1.7
		c0,0,18.49-6.53,24.81-13.74c0,0-9.75,1.4-16.29,0.21c0,0,22.01-10,24.5-16.96c0,0-9.41,7.78-19.74,6.34l22.14-15.84l-11.59,2.29
		l17.92-13.57c0,0,14.32-8.98-1.58-6.97c-15.9,2.01-18.22-5.26-18.22-5.26l12-0.74l-14.26-3.48c0,0,22.58,0.71,30.79-4.34
		s10.48-12.54,10.48-12.54s-9.25,9.31-20.9,8.55l3.34-4.36c0,0-11.76,4.82-17.07,4.48l20.12-12.16l-11.05,1.82
		c0,0,14.19-3.14,25.18-11.83s9.13-11.35,9.13-11.35s-13.71,7.49-24.61,7.03c-10.9-0.46,0.82-4.78,0.82-4.78l-13.87-1.67
		c0,0,25.81-5.94,35.68-12.92c9.86-6.98-0.02-3.56-5.49-1.63c-5.47,1.93-17.13,1.42-21.15,0.65c-4.02-0.77,22.89-7.91,29.95-14.82
		c7.06-6.91,4.84-7.38-1.19-5.16c-23.6,8.69-20.33,0.73-21.59,0.65c-1.27-0.08,12.07-2.79,12.07-2.79l-11.52-5.74
		c0,0,16.51-2.03,19.66-3.25c6.77-2.61,10.16-10.08,2.22-9.65c-15.16,0.81-19.25-3.61-19.25-3.61l19.94-5.79l-11.91-2.8l18.43-2.94
		c0,0-15.95-6.53-15.72-10.07c0.23-3.54,9.41,3.92,19.53,4.58c0,0-1.56-3.41-4.92-10.24c-3.37-6.83,1.85-1.15,5.65-0.9
		c3.8,0.25-0.21-8.4-0.21-8.4s-0.03,0.51,4.52,0.8s-1.96-4.96-1.87-10.29s2.17-2.15,4.57,0.04C-13.14,89.33-10.37,77.61-10.37,77.61
		z"/>
	<g style="clip-path:url(#SVGID_00000080891364423132193650000008888610754537004726_);">
		<polygon class="st2" points="748.46,107.88 751.64,114.57 754.92,107.43 752,79.43 		"/>
		<path class="st2" d="M852.49,445.33c11.71-1.67,14.05-9.03,14.05-9.03c-11.37,4.01-19.74-2.68-19.74-2.68
			c6.02-1,10.04-3.35,10.04-3.35c-10.04,3.35-21.75,0-21.75,0c-23.42-2.34,11.37-12.55,11.37-12.55s-22.07-11.2-14.38-11.2
			s19.74-2.34,14.72-2.34c-5.02,0-4.01-4.35-4.01-4.35s9.37-2.68-7.03-2.68c-16.39,0-15.06-7.69-15.06-7.69h16.06l-10.37-4.01
			c9.37,1.34,22.75-2.01,22.75-2.01c-6.02,0-13.72-5.35-13.72-5.35c14.39,0,13.72-11.37,13.72-11.37s-13.05,0-29.78,0
			c-16.73,0-19.4-6.69-19.4-6.69h7.03c0,0-4.01-6.02,3.68-7.03c7.69-1,15.05,0,15.05,0s-10.04-3.68-6.36-4.35
			c3.68-0.67,12.04,0,12.04,0s-13.72-4.01-4.68-4.01c9.03,0,11.04-8.03,11.04-8.03s-15.39,0-39.14,0c-23.75,0-14.05-7.03-14.05-7.03
			l29.44-3.01h-10.37l17.06-3.68l-10.37-3.35l24.76-1.67l-12.71-3.01l9.37-6.36c-20.07,3.68-40.48-6.69-40.48-6.69
			s6.36-5.02-2.17-5.35c-8.53-0.33-18.9-13.22-11.71-8.7c7.19,4.52,19.91,6.52,19.91,6.52s-20.41-9.37,0.17-3.73
			c20.58,5.63,31.95-16.84,27.77-13.66c-4.18,3.18-12.38-1.17-12.38-1.17s9.37-6.02,1-3.35c-8.36,2.68-28.77-4.18-20.91-4.18
			s13.05-3.68,3.85-3.51c-9.2,0.17-9.7-8.2-9.7-8.2l11.71,1.34c11.54,0.84,15.89-5.35,15.89-5.35c-4.52,1-9.03-1-9.03-1
			c8.53-0.67,16.67-12.95,16.67-12.95s-15.72,7.03-27.77,5.02c-12.14-2.02-13.72-6.36-4.4-7.55c15.17-1.95,19.69-14.97,19.69-14.97
			c-4.85,5.02-32.12,7.03-22.92,4.68c9.2-2.34,19.34-10.94,19.34-10.94s-17.34,6.76-25.03,6.76c-7.69,0-0.84-4.18-0.84-4.18
			c32.89-4.58,39.92-21.64,39.92-21.64c-4.46,4.87-32.39,4.25-27.21,2.57c5.19-1.67,10.04-12.04,6.39-7.69
			c-3.64,4.35-13.75,3.85-11.08,3.85c2.68,0,3.51-6.53,3.51-6.53s-21.41,2.68-16.23,2.34c5.19-0.33,10.04-4.68,5.69-4.52
			c-4.35,0.17-4.01-2.17,4.85-2.34c8.87-0.17,7.69-5.35,7.69-5.35c-4.85,2.51-9.03,0-9.03,0c14.05-4.01,21.18-12.95,20.35-12.44
			c-0.84,0.5-21.78,6.31-41.63,0.73c-7.3-2.05-6.57-8.07-0.63-5.18c11.71,5.69,21.08,2.51,15.56,2.51c-5.52,0-7.86-4.35-7.86-4.35
			c15.39,4.18,21.08-4.01,21.08-4.01c-5.69,3.01-9.53,1.51-9.53,1.51c5.02-2.51,8.03-9.71,8.03-9.71
			c-15.75,8.64-26.06,1.09-28.97-0.12l-9.29-0.17c20.25,1.87,25.71-6.05,25.71-6.05c-15.56,3.01-10.54,0-10.54,0
			c10.54,0,14.05-13.05,14.05-13.05c-8.53,4.01-14.05,5.52-14.05,5.52c14.05-5.52,13.05-21.08,13.05-21.08
			c-7.03,7.53-22.18,7.36-22.18,7.36s20.75-7.39,16.73-9.06c-3.76-1.56-22.21,2.01-18.14,0c10.56-5.21,8.63-10.84,8.63-10.84
			s-10.75,4.86-14.54,4.52c-4.06-0.36-14.47-7.54-14.47-7.54s0.38,10.21,8.56,13.86c4.34,1.93-10.63-0.08-18.88-2.09
			c-3.82-0.93,4.23,9.92,10.32,11.87c9.9,3.17-3.72,0.06-15.03-8.08c0,0-1,15.56,13.05,21.08c0,0-5.52-1.51-14.05-5.52
			c0,0,3.51,13.05,14.05,13.05c0,0,5.02,3.01-10.54,0c0,0-1.1,8.19,19.14,6.33c0,0-15.93,8.65-31.69,0.02c0,0,3.01,7.21,8.03,9.71
			c0,0-3.85,1.51-9.53-1.51c0,0,5.69,8.2,21.08,4.01c0,0-2.34,4.35-7.86,4.35c-5.52,0,3.85,3.18,15.56-2.51
			c5.95-2.89,4.81,5.63-2.68,6.86c-21,3.46-32.79,0.5-33.62,0c-0.84-0.5,0.33,6.02,14.39,10.04c0,0-4.18,2.51-9.03,0
			c0,0-1.17,5.19,7.69,5.35c8.87,0.17,9.2,2.51,4.85,2.34c-4.35-0.17,0.5,4.18,5.69,4.52c5.19,0.33-16.23-2.34-16.23-2.34
			s0.84,6.53,3.51,6.53c2.68-0.01-7.43,0.5-11.08-3.85c-3.64-4.35,1.21,6.02,6.39,7.69c5.19,1.67-14.55,1.17-16.73-3.35
			c0,0,1.34,9.7,13.38,12.04c12.04,2.34-0.67,3.51-0.67,3.51s6.52,6.86,16.73,6.86c0,0,6.86,4.18-0.84,4.18
			c-7.69,0-14.72-2.01-14.72-2.01s-0.17,3.85,9.03,6.19c9.2,2.34-18.07,0.33-22.92-4.68c0,0,5.35,10.04,16.73,14.22
			c0,0-8.36,1.51-13.72-3.18c0,0,20.07,15.39,7.86,13.88c-12.21-1.51-19.07-2.84-19.07-2.84s3.85,7.69,12.38,8.36
			c0,0-4.52,2.01-9.03,1c0,0,3.52,5.01,12.64,5.41c2.5,0.11,4.93,0.93,6.81,2.58c0.78,0.69,0.04,2.39-1.26,4.31
			c-3.57,5.25-28.59,7.25-30.84,5.53c-4.18-3.18,1.34,14.57,28.1,14.57c21.33,0-7.69,18.89-36.8,15.21c0,0,0.67,11.71,13.66,14.79
			c14.03,3.32,24.33,3.84,20.8,3.28l-29.11,4.35c0,0,24.42,14.12,46.11,7.09c3.74-1.21,9.7,7.03-14.05,7.03
			c-23.75,0-39.14,0-39.14,0s2.01,8.03,11.04,8.03c9.03,0-4.68,4.01-4.68,4.01s8.36-0.67,12.04,0c3.68,0.67-6.36,4.35-6.36,4.35
			s7.36-1,15.05,0c7.69,1,3.68,7.03,3.68,7.03h7.03c0,0-2.68,6.69-19.4,6.69c-16.73,0-29.78,0-29.78,0s-0.67,11.37,13.72,11.37
			c0,0-7.7,5.35-13.72,5.35c0,0,13.39,3.35,22.75,2.01l-10.37,4.01h16.06c0,0,1.34,7.69-15.05,7.69c-16.39,0-7.03,2.68-7.03,2.68
			s1,4.35-4.01,4.35c-5.02,0,7.03,2.34,14.72,2.34s-5.02,6.36-5.02,6.36h9.36c4.31,0,8.05,3.52,7.78,7.82
			c-0.25,4.06-3.43,8.41-15.14,9.58c0,0-11.71,3.35-21.75,0c0,0,4.01,2.34,10.04,3.35c0,0-8.36,6.69-19.74,2.68
			c0,0,2.34,7.36,14.05,9.03c0,0-5.35,3.35-14.05,1.67c0,0,9.7,10.71,27.77,8.36c0,0-1.67,7.69-10.71,7.69
			c-8.74,0,28.55,6.57,42.5,0.64l-17.41,8.39c0,0,28.1,6.02,44.16-10.37l-5.35,9.03c0,0,9.24-3.72,17.77-8.09
			c5.42-2.78,11.39-1.4,16.98,1.02c0.05,0.02,0.08,0.02,0.1,0c0.02,0.02,0.05,0.02,0.1,0c5.59-2.42,11.56-3.8,16.98-1.02
			c8.53,4.37,17.77,8.09,17.77,8.09l-5.35-9.03c16.06,16.39,44.16,10.37,44.16,10.37l-17.41-8.39c13.95,5.93,51.24-0.64,42.5-0.64
			c-9.03,0-10.71-7.69-10.71-7.69c18.07,2.34,27.77-8.36,27.77-8.36C857.84,448.68,852.49,445.33,852.49,445.33z"/>
	</g>
</g>
<path class="st3" d="M840.22,185.11"/>
</svg>
