<?xml version="1.0" encoding="utf-8"?>
<!-- Generator: Adobe Illustrator 27.2.0, SVG Export Plug-In . SVG Version: 6.00 Build 0)  -->
<svg version="1.1" id="Capa_1" xmlns="http://www.w3.org/2000/svg" xmlns:xlink="http://www.w3.org/1999/xlink" x="0px" y="0px"
	 viewBox="0 0 750 500" style="enable-background:new 0 0 750 500;" xml:space="preserve">
<style type="text/css">
	.st0{clip-path:url(#SVGID_00000169541555056695835350000001116993836147620538_);}
	
		.st1{clip-path:url(#SVGID_00000166640841632295079950000004116980538142369941_);fill:url(#SVGID_00000005958809957984918100000005271668666345225643_);}
	
		.st2{opacity:0.72;clip-path:url(#SVGID_00000166640841632295079950000004116980538142369941_);fill:url(#SVGID_00000026861312323872122600000014792231900050687149_);}
	.st3{opacity:0.23;clip-path:url(#SVGID_00000166640841632295079950000004116980538142369941_);}
	.st4{fill:url(#SVGID_00000053531981472988110060000013327271458689705649_);}
	.st5{opacity:0.61;}
	.st6{fill:url(#SVGID_00000017513003597981289200000016576009603669280957_);}
	
		.st7{opacity:0.47;clip-path:url(#SVGID_00000166640841632295079950000004116980538142369941_);fill:url(#SVGID_00000016065135423562765720000014716270165170964644_);}
	.st8{opacity:0.51;clip-path:url(#SVGID_00000166640841632295079950000004116980538142369941_);}
	.st9{fill:#C7FFFF;}
	
		.st10{opacity:0.58;clip-path:url(#SVGID_00000166640841632295079950000004116980538142369941_);fill:url(#SVGID_00000146461629561166498240000010355520576449806493_);}
	
		.st11{clip-path:url(#SVGID_00000166640841632295079950000004116980538142369941_);fill:url(#SVGID_00000161633610166424898130000009968191095093673876_);}
</style>
<g>
	<defs>
		<rect id="SVGID_1_" width="750" height="500"/>
	</defs>
	<clipPath id="SVGID_00000077320270389796825550000013455572950683817620_">
		<use xlink:href="#SVGID_1_"  style="overflow:visible;"/>
	</clipPath>
	<g style="clip-path:url(#SVGID_00000077320270389796825550000013455572950683817620_);">
		<defs>
			<polygon id="SVGID_00000008129130087574250750000006730270571256567697_" points="-42.13,307 234.5,307 792.14,307 
				792.14,495.36 138.3,495.36 -21.68,495.36 			"/>
		</defs>
		<clipPath id="SVGID_00000093153040853766862700000000854415807946684092_">
			<use xlink:href="#SVGID_00000008129130087574250750000006730270571256567697_"  style="overflow:visible;"/>
		</clipPath>
		
			<linearGradient id="SVGID_00000147194774560555621230000005912449499926556568_" gradientUnits="userSpaceOnUse" x1="-42.129" y1="401.1761" x2="792.1353" y2="401.1761">
			<stop  offset="0" style="stop-color:#057187"/>
			<stop  offset="0.5171" style="stop-color:#27A3BB"/>
			<stop  offset="1" style="stop-color:#006A7B"/>
		</linearGradient>
		
			<polygon style="clip-path:url(#SVGID_00000093153040853766862700000000854415807946684092_);fill:url(#SVGID_00000147194774560555621230000005912449499926556568_);" points="
			-42.13,307 234.5,307 792.14,307 792.14,495.36 138.3,495.36 -21.68,495.36 		"/>
		
			<linearGradient id="SVGID_00000018920431901116479770000010993572499256999329_" gradientUnits="userSpaceOnUse" x1="103.3942" y1="396.9161" x2="594.3627" y2="396.9161">
			<stop  offset="0" style="stop-color:#057187"/>
			<stop  offset="1" style="stop-color:#27A3BB;stop-opacity:0.3"/>
		</linearGradient>
		
			<path style="opacity:0.72;clip-path:url(#SVGID_00000093153040853766862700000000854415807946684092_);fill:url(#SVGID_00000018920431901116479770000010993572499256999329_);" d="
			M238.07,303.13c0,0-149.08-2.86-133.55,5.72c15.54,8.58,101.08,6.65,86.38,12.62c-4.47,1.82-19.81,0-38.59,4.59
			c-17.17,4.2-9.41,14,4.66,14.13c26.31,0.25,47.65,2.52,34.93,5.25c-22.15,4.75-28.45,7.31-22.15,11.01
			c2.92,1.71,21.38-1.08,22.96,1.75c5.41,9.67-41.21-2.08-41.21,15.92c0,19.18,85.02,0.74,84.93,13.16
			c-0.05,6.87-20.88,8.35-28.09,11.2c-17.58,6.97-8.68,18.48,24.12,14.47c28.18-3.45,20.86,23.12-6.34,24.12
			c-23.54,0.87-40.38,37.24,31.13,35.02l120.02,17.52l76.93-0.58c0,0,83.98,8.83,63.27-9.62c-20.71-18.46-10.73-15.21,6.57-31.89
			s-17.94-18.94-36.83-27.96c-18.89-9.01,9.99-6.59,49.34-12.53c39.35-5.94,38.47-39.68,3.89-39.96
			c-34.58-0.28-38.54-14.29-13.21-15.63c25.34-1.33,80.67-16.89,39.76-23.79c-40.92-6.9-0.96-9.57,17.46-10.91
			c18.42-1.33,5.49-13.64,5.49-13.64H238.07z"/>
		<g style="opacity:0.23;clip-path:url(#SVGID_00000093153040853766862700000000854415807946684092_);">
			
				<linearGradient id="SVGID_00000176015475520866865020000001811223995884551587_" gradientUnits="userSpaceOnUse" x1="500.242" y1="1918.777" x2="501.4299" y2="2036.3862" gradientTransform="matrix(1 0 0 -1 0 2279.3965)">
				<stop  offset="0" style="stop-color:#006376"/>
				<stop  offset="1" style="stop-color:#1B9E9C"/>
			</linearGradient>
			<path style="fill:url(#SVGID_00000176015475520866865020000001811223995884551587_);" d="M200.33,293.48
				c0,0,61.94,16.85,73.8,16.85c11.86,0,35.58,4.96,54.03,6.94c18.45,1.98,79.07,19.82,79.07,19.82h34.26l25.04,8.92
				c0,0,36.9-4.96,42.17-4.96s39.54,13.88,39.54,13.88l36.9,19.82h26.36l39.54,17.84l41.36,5.05l49.57-25.87l59.3-45.6v-41.63
				H200.33V293.48z"/>
			<g class="st5">
				
					<linearGradient id="SVGID_00000093890102092488503040000006394809449114501022_" gradientUnits="userSpaceOnUse" x1="500.242" y1="1918.777" x2="501.4299" y2="2036.3862" gradientTransform="matrix(1 0 0 -1 0 2279.3965)">
					<stop  offset="0" style="stop-color:#006376"/>
					<stop  offset="1" style="stop-color:#1B9E9C"/>
				</linearGradient>
				<path style="fill:url(#SVGID_00000093890102092488503040000006394809449114501022_);" d="M200.33,293.48
					c0,0,61.94,16.85,73.8,16.85c11.86,0,35.58,4.96,54.03,6.94c18.45,1.98,79.07,19.82,79.07,19.82h34.26l25.04,8.92
					c0,0,36.9-4.96,42.17-4.96s39.54,13.88,39.54,13.88l36.9,19.82h26.36l39.54,17.84l41.36,5.05l49.57-25.87l59.3-45.6v-41.63
					H200.33V293.48z"/>
			</g>
		</g>
		
			<linearGradient id="SVGID_00000067206287125830097540000003479847247328441760_" gradientUnits="userSpaceOnUse" x1="-1294.9382" y1="396.9161" x2="-996.1783" y2="396.9161" gradientTransform="matrix(-1 0 0 1 -776.5656 0)">
			<stop  offset="3.229010e-03" style="stop-color:#27A3BB;stop-opacity:0.2"/>
			<stop  offset="1" style="stop-color:#057187"/>
		</linearGradient>
		
			<path style="opacity:0.47;clip-path:url(#SVGID_00000093153040853766862700000000854415807946684092_);fill:url(#SVGID_00000067206287125830097540000003479847247328441760_);" d="
			M436.42,303.13c0,0,90.72-2.86,81.26,5.72c-9.45,8.58-61.51,6.65-52.56,12.62c2.72,1.82,12.06,0,23.48,4.59
			c10.45,4.2,5.73,14-2.83,14.13c-16.01,0.25-28.99,2.52-21.25,5.25c13.48,4.75,17.31,7.31,13.48,11.01
			c-1.77,1.71-13.01-1.08-13.97,1.75c-3.29,9.67,25.08-2.08,25.08,15.92c0,19.18-51.74,0.74-51.68,13.16
			c0.03,6.87,12.71,8.35,17.09,11.2c10.7,6.97,5.28,18.48-14.68,14.47c-17.15-3.45-12.69,23.12,3.86,24.12
			c14.33,0.87,24.57,37.24-18.94,35.02l-73.04,17.52l-46.81-0.58c0,0-51.1,8.83-38.5-9.62c12.6-18.46,6.53-15.21-4-31.89
			c-10.52-16.68,10.92-18.94,22.41-27.96c11.5-9.01,3.27-18.51-20.95-18.13c-32.5,0.52-20.81-22.8,0-27.89
			c33.52-8.2,28.74-22.79-3.4-22.11c-43.09,0.91-49.09-16.89-24.19-23.79c24.9-6.9,0.59-9.57-10.62-10.91
			c-4.98-0.59-6.2-3.35-6.01-6.24c0.28-4.23,3.4-7.4,6.97-7.4H436.42z"/>
		<g style="opacity:0.51;clip-path:url(#SVGID_00000093153040853766862700000000854415807946684092_);">
			<g>
				<path class="st9" d="M338.98,358.69c17.54-1.62,35.88-1.99,53.53-2.17c17.66,0,35.98,0.2,53.55,1.66
					c-17.54,1.63-35.88,2-53.53,2.17C374.87,360.34,356.55,360.14,338.98,358.69L338.98,358.69z"/>
			</g>
			<g>
				<path class="st9" d="M423.84,344.44c13.73-1.56,27.49-1.94,41.27-2.04c13.78,0.01,27.55,0.31,41.28,1.8
					c-13.73,1.57-27.49,1.95-41.27,2.04C451.34,346.22,437.58,345.92,423.84,344.44L423.84,344.44z"/>
			</g>
			<g>
				<path class="st9" d="M190.02,337.55c13.73-1.56,27.49-1.94,41.27-2.04c13.78,0.01,27.55,0.31,41.28,1.8
					c-13.73,1.57-27.49,1.95-41.27,2.04C217.52,339.32,203.76,339.03,190.02,337.55L190.02,337.55z"/>
			</g>
			<g>
				<path class="st9" d="M401.11,371.31c49.12-2.95,99-3.29,148.15-0.96C500.14,373.31,450.26,373.62,401.11,371.31L401.11,371.31z"
					/>
			</g>
			<g>
				<path class="st9" d="M310.31,391.65c49.12-2.95,99-3.29,148.15-0.96C409.34,393.65,359.47,393.96,310.31,391.65L310.31,391.65z"
					/>
			</g>
			<g>
				<path class="st9" d="M245.46,327.53c17.54-1.62,35.88-1.99,53.53-2.17c17.66,0,35.98,0.2,53.55,1.66
					c-17.54,1.63-35.88,2-53.53,2.17C281.35,329.18,263.03,328.98,245.46,327.53L245.46,327.53z"/>
			</g>
			<g>
				<path class="st9" d="M438.1,321.61c17.54-1.62,35.88-1.99,53.53-2.17c17.66,0,35.98,0.2,53.55,1.66
					c-17.54,1.63-35.88,2-53.53,2.17C474,323.26,455.67,323.06,438.1,321.61L438.1,321.61z"/>
			</g>
		</g>
		
			<linearGradient id="SVGID_00000161615663753336696050000002462486343416430217_" gradientUnits="userSpaceOnUse" x1="523.5992" y1="2114.0645" x2="523.5992" y2="2089.3816" gradientTransform="matrix(1 0 0 -1 0 2390.4619)">
			<stop  offset="0" style="stop-color:#1B9E9C;stop-opacity:0"/>
			<stop  offset="1" style="stop-color:#006376"/>
		</linearGradient>
		
			<polygon style="opacity:0.58;clip-path:url(#SVGID_00000093153040853766862700000000854415807946684092_);fill:url(#SVGID_00000161615663753336696050000002462486343416430217_);" points="
			793.08,304.19 786.19,323.02 780.3,310.8 776.52,320.71 772.67,312.74 768.64,323.3 765.35,316.47 762.65,325.43 760.32,320.59 
			759.34,323.13 757.42,319.14 756.28,322.56 752.99,314.57 750.01,322.39 742.84,307.52 737.57,324.99 731.84,313.11 729.1,321.53 
			726.95,317.46 726.07,319.6 724.3,316.25 723.26,319.11 720.14,312.2 717.52,320.88 713.93,313.44 711.49,319.35 709.72,315.99 
			708.68,318.86 705.56,311.94 701.81,324.36 695.94,312.17 693.44,320.46 689.99,313.3 686.35,322.83 679.95,309.56 675.84,320.32 
			671.66,311.66 667.29,323.13 663.71,315.72 660.78,325.44 658.24,320.18 657.19,322.95 655.1,318.62 653.86,322.32 650.29,313.65 
			647.04,322.14 639.26,305.99 634.76,320.9 629.67,310.35 627.23,317.84 625.32,314.22 624.54,316.12 623.06,313.32 620.61,320 
			617.84,314.24 616.93,317.25 614.41,312.02 612.14,317.98 609.87,313.27 609.08,315.46 607.99,313.04 605.24,320.24 
			603.86,317.38 602.97,320.35 601.46,317.22 599.99,322.1 597.94,317.86 597.09,320.1 595.53,316.85 595.52,316.88 595.4,316.63 
			594.41,319.59 591.53,312.6 588.91,319.44 587.74,317.01 586.68,319.52 581.56,309.97 578.01,321.72 574.64,314.72 572.93,311.53 
			570.6,318.69 568.99,315.65 567.26,319.77 565.51,316.5 565.48,316.58 565.1,315.73 563.6,312.94 560.64,321.89 558.04,317.04 
			556.98,319.59 555.3,316.46 555.17,316.78 554.71,315.92 553.58,319 549.91,311.01 549.34,312.4 546.69,321.17 541.54,310.49 
			539.35,317.75 536.33,311.48 535.11,314.66 532.89,321.4 526.82,310.08 523.93,317.63 523.75,317.25 523.51,317.93 521.12,313.86 
			520.15,315.99 518.85,313.78 516.44,320.09 513.31,313.6 510.74,322.12 508.52,317.51 507.59,319.93 505.76,316.14 504.68,319.39 
			501.91,312.68 500.91,315.22 500.53,314.46 498.71,319.22 495.8,313.2 493.32,320.7 489.38,313.36 487.94,318.14 485.36,312.79 
			484.04,316.79 481.98,313.51 481.35,315.45 479.67,312.28 478.99,313.95 477.61,311.34 476.8,313.57 474.37,308.18 472.32,314.94 
			469.53,309.15 467.63,313.75 466.25,311.14 465.44,313.37 463.01,307.98 460.09,317.66 455.51,308.16 453.57,314.62 449.94,307.1 
			445.82,316.93 440.07,306.22 436.44,314.9 432.68,307.9 428.81,317.15 425.6,311.16 423.01,319 420.73,314.76 419.8,316.99 
			417.92,313.49 416.82,316.48 414.1,310.56 413.56,312.18 413.02,310.88 410.74,316.32 405.22,306.04 402.95,313.56 401.41,310.35 
			398.69,318.58 393.11,308.16 390.48,315.54 388.38,311.97 387.53,313.84 385.8,310.9 384.81,313.41 383.44,310.7 382.69,313.21 
			380.99,309.67 379.24,314.95 375.74,308.42 373.4,313.59 371.67,310.65 370.67,313.16 368.65,309.14 367.97,310.92 367.01,308.93 
			364.03,317.97 360.29,310.99 359.43,313.82 358,310.84 357.4,312.41 356.93,311.43 355.9,314.54 352.64,309.35 351.65,311.95 
			347.24,302.79 344.69,311.25 341.8,305.27 340.42,309.51 339.34,307.46 338.89,308.54 338,306.84 337.48,308.29 335.9,304.8 
			334.58,309.18 332.78,305.43 331.55,308.41 330.65,306.72 330.13,308.16 328.56,304.67 326.67,310.93 323.71,304.79 
			322.45,308.97 320.1,304.1 317.44,310.47 313.72,303.53 311.37,309.15 308.94,304.62 306.43,310.6 304.36,306.73 302.68,311.8 
			301.21,309.06 300.6,310.5 299.39,308.24 298.68,310.17 296.6,305.64 294.75,310.07 290.22,301.63 286.95,311.53 283.34,304.79 
			281.63,309.56 280.28,307.25 279.73,308.46 278.61,306.56 277.97,308.18 275.99,304.26 274.37,309.18 272.1,304.96 270.59,308.3 
			269.47,306.4 268.82,308.02 266.85,304.1 264.53,311.13 260.82,304.22 259.27,308.91 254.12,300.71 434.42,301.77 434.2,302.37 
			475.14,302.61 474.96,302.32 		"/>
		
			<linearGradient id="SVGID_00000117669728588441954230000002661806993412682156_" gradientUnits="userSpaceOnUse" x1="142.7228" y1="2108.4954" x2="142.7228" y2="2087.5349" gradientTransform="matrix(1 0 0 -1 0 2390.4619)">
			<stop  offset="0" style="stop-color:#1B9E9C;stop-opacity:0"/>
			<stop  offset="1" style="stop-color:#006376"/>
		</linearGradient>
		
			<polygon style="clip-path:url(#SVGID_00000093153040853766862700000000854415807946684092_);fill:url(#SVGID_00000117669728588441954230000002661806993412682156_);" points="
			221.18,303.57 216.7,313.43 215.48,307.73 212.23,316.05 210.39,307.51 208.66,312.24 208.15,310.26 207.17,312.55 205.95,308.48 
			203.96,313.56 202.68,307.59 200.95,312.32 200.44,310.34 199.46,312.63 199.02,311.16 197.83,313.94 196.48,308.14 
			193.32,316.25 190.74,304.23 186.77,314.39 185.29,309.01 183.46,314.46 182.89,312.11 181.83,314.84 181.34,313.08 
			180.05,316.39 178.73,310.23 176.91,314.89 174.91,307.62 172.78,313.07 170.9,306.24 167.64,314.59 165.5,306.85 163.44,312.71 
			162.45,307.64 159.85,315.04 158.37,307.44 156.98,311.64 156.56,309.88 155.78,311.92 154.8,308.3 153.21,312.82 152.17,307.5 
			150.78,311.7 150.37,309.95 149.59,311.98 149.23,310.67 148.28,313.14 147.19,307.99 144.66,315.2 142.65,304.93 138.77,315.96 
			137.98,312.8 135.15,319.04 134.33,315.26 133.92,316.44 133.44,314.54 132.18,318.12 131.51,314.69 128.23,323.09 125.88,312.12 
			125.03,314.51 124.49,312.35 122.72,317.19 121.92,314.14 120.41,317.68 118.53,311.38 115.46,319.24 114.08,312.84 112.59,317.1 
			111.99,314.05 110.8,317.31 110,314.26 108.49,317.8 107.81,315.53 105.98,319.82 103.89,310.86 99,323.4 96.86,313.41 
			95.5,317.27 93.72,308.14 88.88,320.52 87.06,313.9 86.58,315.48 86.15,313.5 83.75,320.63 82.88,317 81.24,321.21 80.49,318.5 
			78.5,323.61 76.45,314.09 73.64,321.29 70.54,310.05 67.25,318.47 64.34,307.92 64.26,308.13 64.26,303.3 69.36,303.33 
			69.19,302.61 		"/>
	</g>
</g>
</svg>
