<svg id="visual" viewBox="0 0 900 600" width="900" height="600" xmlns="http://www.w3.org/2000/svg" xmlns:xlink="http://www.w3.org/1999/xlink" version="1.1"><rect x="0" y="0" width="900" height="600" fill="#FFF"></rect><path d="M0 108L6.5 104.2C13 100.3 26 92.7 39 93C52 93.3 65 101.7 78 101.5C91 101.3 104 92.7 117.2 90.8C130.3 89 143.7 94 156.8 96.7C170 99.3 183 99.7 196 99C209 98.3 222 96.7 235 94.2C248 91.7 261 88.3 274 87.8C287 87.3 300 89.7 313 90.3C326 91 339 90 352 91C365 92 378 95 391 94.5C404 94 417 90 430.2 92C443.3 94 456.7 102 469.8 103.8C483 105.7 496 101.3 509 100.3C522 99.3 535 101.7 548 103C561 104.3 574 104.7 587 105.2C600 105.7 613 106.3 626 106.3C639 106.3 652 105.7 665 104.3C678 103 691 101 704 98.8C717 96.7 730 94.3 743.2 92C756.3 89.7 769.7 87.3 782.8 89.3C796 91.3 809 97.7 822 99.2C835 100.7 848 97.3 861 99.2C874 101 887 108 893.5 111.5L900 115L900 0L893.5 0C887 0 874 0 861 0C848 0 835 0 822 0C809 0 796 0 782.8 0C769.7 0 756.3 0 743.2 0C730 0 717 0 704 0C691 0 678 0 665 0C652 0 639 0 626 0C613 0 600 0 587 0C574 0 561 0 548 0C535 0 522 0 509 0C496 0 483 0 469.8 0C456.7 0 443.3 0 430.2 0C417 0 404 0 391 0C378 0 365 0 352 0C339 0 326 0 313 0C300 0 287 0 274 0C261 0 248 0 235 0C222 0 209 0 196 0C183 0 170 0 156.8 0C143.7 0 130.3 0 117.2 0C104 0 91 0 78 0C65 0 52 0 39 0C26 0 13 0 6.5 0L0 0Z" fill="#ffffff"></path><path d="M0 91L6.5 89.2C13 87.3 26 83.7 39 83.3C52 83 65 86 78 87C91 88 104 87 117.2 88.2C130.3 89.3 143.7 92.7 156.8 91.5C170 90.3 183 84.7 196 81.5C209 78.3 222 77.7 235 79.8C248 82 261 87 274 87.7C287 88.3 300 84.7 313 84.3C326 84 339 87 352 90C365 93 378 96 391 93.8C404 91.7 417 84.3 430.2 83.7C443.3 83 456.7 89 469.8 91C483 93 496 91 509 91.8C522 92.7 535 96.3 548 95.3C561 94.3 574 88.7 587 85.8C600 83 613 83 626 85.8C639 88.7 652 94.3 665 94.5C678 94.7 691 89.3 704 89.3C717 89.3 730 94.7 743.2 96C756.3 97.3 769.7 94.7 782.8 94C796 93.3 809 94.7 822 94.7C835 94.7 848 93.3 861 94C874 94.7 887 97.3 893.5 98.7L900 100L900 0L893.5 0C887 0 874 0 861 0C848 0 835 0 822 0C809 0 796 0 782.8 0C769.7 0 756.3 0 743.2 0C730 0 717 0 704 0C691 0 678 0 665 0C652 0 639 0 626 0C613 0 600 0 587 0C574 0 561 0 548 0C535 0 522 0 509 0C496 0 483 0 469.8 0C456.7 0 443.3 0 430.2 0C417 0 404 0 391 0C378 0 365 0 352 0C339 0 326 0 313 0C300 0 287 0 274 0C261 0 248 0 235 0C222 0 209 0 196 0C183 0 170 0 156.8 0C143.7 0 130.3 0 117.2 0C104 0 91 0 78 0C65 0 52 0 39 0C26 0 13 0 6.5 0L0 0Z" fill="#e7eaed"></path><path d="M0 79L6.5 78.3C13 77.7 26 76.3 39 75.2C52 74 65 73 78 73.8C91 74.7 104 77.3 117.2 81.3C130.3 85.3 143.7 90.7 156.8 89.7C170 88.7 183 81.3 196 79.7C209 78 222 82 235 84C248 86 261 86 274 87C287 88 300 90 313 88.3C326 86.7 339 81.3 352 79.8C365 78.3 378 80.7 391 82.8C404 85 417 87 430.2 89.3C443.3 91.7 456.7 94.3 469.8 93.7C483 93 496 89 509 86.7C522 84.3 535 83.7 548 85.5C561 87.3 574 91.7 587 89.8C600 88 613 80 626 78.2C639 76.3 652 80.7 665 82.8C678 85 691 85 704 86.5C717 88 730 91 743.2 91.2C756.3 91.3 769.7 88.7 782.8 86.2C796 83.7 809 81.3 822 82.5C835 83.7 848 88.3 861 88.3C874 88.3 887 83.7 893.5 81.3L900 79L900 0L893.5 0C887 0 874 0 861 0C848 0 835 0 822 0C809 0 796 0 782.8 0C769.7 0 756.3 0 743.2 0C730 0 717 0 704 0C691 0 678 0 665 0C652 0 639 0 626 0C613 0 600 0 587 0C574 0 561 0 548 0C535 0 522 0 509 0C496 0 483 0 469.8 0C456.7 0 443.3 0 430.2 0C417 0 404 0 391 0C378 0 365 0 352 0C339 0 326 0 313 0C300 0 287 0 274 0C261 0 248 0 235 0C222 0 209 0 196 0C183 0 170 0 156.8 0C143.7 0 130.3 0 117.2 0C104 0 91 0 78 0C65 0 52 0 39 0C26 0 13 0 6.5 0L0 0Z" fill="#d0d6db"></path><path d="M0 75L6.5 75.5C13 76 26 77 39 77.5C52 78 65 78 78 77.3C91 76.7 104 75.3 117.2 75.8C130.3 76.3 143.7 78.7 156.8 77.2C170 75.7 183 70.3 196 71C209 71.7 222 78.3 235 81.8C248 85.3 261 85.7 274 84C287 82.3 300 78.7 313 75.7C326 72.7 339 70.3 352 72.2C365 74 378 80 391 82.2C404 84.3 417 82.7 430.2 80.7C443.3 78.7 456.7 76.3 469.8 75.5C483 74.7 496 75.3 509 77C522 78.7 535 81.3 548 80.3C561 79.3 574 74.7 587 71.2C600 67.7 613 65.3 626 67C639 68.7 652 74.3 665 74.2C678 74 691 68 704 65.8C717 63.7 730 65.3 743.2 67.8C756.3 70.3 769.7 73.7 782.8 76.7C796 79.7 809 82.3 822 82.7C835 83 848 81 861 80.5C874 80 887 81 893.5 81.5L900 82L900 0L893.5 0C887 0 874 0 861 0C848 0 835 0 822 0C809 0 796 0 782.8 0C769.7 0 756.3 0 743.2 0C730 0 717 0 704 0C691 0 678 0 665 0C652 0 639 0 626 0C613 0 600 0 587 0C574 0 561 0 548 0C535 0 522 0 509 0C496 0 483 0 469.8 0C456.7 0 443.3 0 430.2 0C417 0 404 0 391 0C378 0 365 0 352 0C339 0 326 0 313 0C300 0 287 0 274 0C261 0 248 0 235 0C222 0 209 0 196 0C183 0 170 0 156.8 0C143.7 0 130.3 0 117.2 0C104 0 91 0 78 0C65 0 52 0 39 0C26 0 13 0 6.5 0L0 0Z" fill="#b9c2c9"></path><path d="M0 56L6.5 58.7C13 61.3 26 66.7 39 69.7C52 72.7 65 73.3 78 71.3C91 69.3 104 64.7 117.2 64.5C130.3 64.3 143.7 68.7 156.8 71.7C170 74.7 183 76.3 196 77.2C209 78 222 78 235 77.5C248 77 261 76 274 73.5C287 71 300 67 313 67C326 67 339 71 352 69.8C365 68.7 378 62.3 391 63C404 63.7 417 71.3 430.2 71.5C443.3 71.7 456.7 64.3 469.8 63.3C483 62.3 496 67.7 509 70.2C522 72.7 535 72.3 548 71.8C561 71.3 574 70.7 587 71.7C600 72.7 613 75.3 626 74.2C639 73 652 68 665 65.2C678 62.3 691 61.7 704 60.2C717 58.7 730 56.3 743.2 57.2C756.3 58 769.7 62 782.8 63.3C796 64.7 809 63.3 822 64.2C835 65 848 68 861 70.5C874 73 887 75 893.5 76L900 77L900 0L893.5 0C887 0 874 0 861 0C848 0 835 0 822 0C809 0 796 0 782.8 0C769.7 0 756.3 0 743.2 0C730 0 717 0 704 0C691 0 678 0 665 0C652 0 639 0 626 0C613 0 600 0 587 0C574 0 561 0 548 0C535 0 522 0 509 0C496 0 483 0 469.8 0C456.7 0 443.3 0 430.2 0C417 0 404 0 391 0C378 0 365 0 352 0C339 0 326 0 313 0C300 0 287 0 274 0C261 0 248 0 235 0C222 0 209 0 196 0C183 0 170 0 156.8 0C143.7 0 130.3 0 117.2 0C104 0 91 0 78 0C65 0 52 0 39 0C26 0 13 0 6.5 0L0 0Z" fill="#a3afb8"></path><path d="M0 63L6.5 62.8C13 62.7 26 62.3 39 62C52 61.7 65 61.3 78 59.8C91 58.3 104 55.7 117.2 56.5C130.3 57.3 143.7 61.7 156.8 63.8C170 66 183 66 196 62.8C209 59.7 222 53.3 235 53.2C248 53 261 59 274 61.7C287 64.3 300 63.7 313 60.8C326 58 339 53 352 52C365 51 378 54 391 56.3C404 58.7 417 60.3 430.2 60.8C443.3 61.3 456.7 60.7 469.8 60.2C483 59.7 496 59.3 509 57.8C522 56.3 535 53.7 548 52.7C561 51.7 574 52.3 587 55.2C600 58 613 63 626 65.3C639 67.7 652 67.3 665 66.7C678 66 691 65 704 62.2C717 59.3 730 54.7 743.2 52.5C756.3 50.3 769.7 50.7 782.8 51.5C796 52.3 809 53.7 822 54.2C835 54.7 848 54.3 861 54C874 53.7 887 53.3 893.5 53.2L900 53L900 0L893.5 0C887 0 874 0 861 0C848 0 835 0 822 0C809 0 796 0 782.8 0C769.7 0 756.3 0 743.2 0C730 0 717 0 704 0C691 0 678 0 665 0C652 0 639 0 626 0C613 0 600 0 587 0C574 0 561 0 548 0C535 0 522 0 509 0C496 0 483 0 469.8 0C456.7 0 443.3 0 430.2 0C417 0 404 0 391 0C378 0 365 0 352 0C339 0 326 0 313 0C300 0 287 0 274 0C261 0 248 0 235 0C222 0 209 0 196 0C183 0 170 0 156.8 0C143.7 0 130.3 0 117.2 0C104 0 91 0 78 0C65 0 52 0 39 0C26 0 13 0 6.5 0L0 0Z" fill="#8d9ba6"></path><path d="M0 58L6.5 57C13 56 26 54 39 51.8C52 49.7 65 47.3 78 47.8C91 48.3 104 51.7 117.2 52.3C130.3 53 143.7 51 156.8 48.7C170 46.3 183 43.7 196 44.7C209 45.7 222 50.3 235 53.7C248 57 261 59 274 57.7C287 56.3 300 51.7 313 49.5C326 47.3 339 47.7 352 48.2C365 48.7 378 49.3 391 49.2C404 49 417 48 430.2 47C443.3 46 456.7 45 469.8 45.5C483 46 496 48 509 48C522 48 535 46 548 44.3C561 42.7 574 41.3 587 41.7C600 42 613 44 626 44C639 44 652 42 665 44.3C678 46.7 691 53.3 704 53.3C717 53.3 730 46.7 743.2 44.3C756.3 42 769.7 44 782.8 45.7C796 47.3 809 48.7 822 49C835 49.3 848 48.7 861 49.3C874 50 887 52 893.5 53L900 54L900 0L893.5 0C887 0 874 0 861 0C848 0 835 0 822 0C809 0 796 0 782.8 0C769.7 0 756.3 0 743.2 0C730 0 717 0 704 0C691 0 678 0 665 0C652 0 639 0 626 0C613 0 600 0 587 0C574 0 561 0 548 0C535 0 522 0 509 0C496 0 483 0 469.8 0C456.7 0 443.3 0 430.2 0C417 0 404 0 391 0C378 0 365 0 352 0C339 0 326 0 313 0C300 0 287 0 274 0C261 0 248 0 235 0C222 0 209 0 196 0C183 0 170 0 156.8 0C143.7 0 130.3 0 117.2 0C104 0 91 0 78 0C65 0 52 0 39 0C26 0 13 0 6.5 0L0 0Z" fill="#778996"></path><path d="M0 34L6.5 36.5C13 39 26 44 39 44C52 44 65 39 78 38C91 37 104 40 117.2 41.7C130.3 43.3 143.7 43.7 156.8 42.8C170 42 183 40 196 39.2C209 38.3 222 38.7 235 39.2C248 39.7 261 40.3 274 42C287 43.7 300 46.3 313 47.7C326 49 339 49 352 48.2C365 47.3 378 45.7 391 43.5C404 41.3 417 38.7 430.2 36.8C443.3 35 456.7 34 469.8 35.2C483 36.3 496 39.7 509 39.7C522 39.7 535 36.3 548 35C561 33.7 574 34.3 587 36.3C600 38.3 613 41.7 626 44.5C639 47.3 652 49.7 665 50.7C678 51.7 691 51.3 704 48.7C717 46 730 41 743.2 39.3C756.3 37.7 769.7 39.3 782.8 40.5C796 41.7 809 42.3 822 42.3C835 42.3 848 41.7 861 41.2C874 40.7 887 40.3 893.5 40.2L900 40L900 0L893.5 0C887 0 874 0 861 0C848 0 835 0 822 0C809 0 796 0 782.8 0C769.7 0 756.3 0 743.2 0C730 0 717 0 704 0C691 0 678 0 665 0C652 0 639 0 626 0C613 0 600 0 587 0C574 0 561 0 548 0C535 0 522 0 509 0C496 0 483 0 469.8 0C456.7 0 443.3 0 430.2 0C417 0 404 0 391 0C378 0 365 0 352 0C339 0 326 0 313 0C300 0 287 0 274 0C261 0 248 0 235 0C222 0 209 0 196 0C183 0 170 0 156.8 0C143.7 0 130.3 0 117.2 0C104 0 91 0 78 0C65 0 52 0 39 0C26 0 13 0 6.5 0L0 0Z" fill="#627685"></path><path d="M0 30L6.5 30.2C13 30.3 26 30.7 39 31.2C52 31.7 65 32.3 78 34C91 35.7 104 38.3 117.2 39C130.3 39.7 143.7 38.3 156.8 36.7C170 35 183 33 196 32.5C209 32 222 33 235 33C248 33 261 32 274 33C287 34 300 37 313 38.7C326 40.3 339 40.7 352 40C365 39.3 378 37.7 391 35.7C404 33.7 417 31.3 430.2 30.5C443.3 29.7 456.7 30.3 469.8 31.3C483 32.3 496 33.7 509 35.7C522 37.7 535 40.3 548 39.8C561 39.3 574 35.7 587 33.7C600 31.7 613 31.3 626 32.3C639 33.3 652 35.7 665 35C678 34.3 691 30.7 704 29C717 27.3 730 27.7 743.2 29.3C756.3 31 769.7 34 782.8 33.7C796 33.3 809 29.7 822 29.8C835 30 848 34 861 34C874 34 887 30 893.5 28L900 26L900 0L893.5 0C887 0 874 0 861 0C848 0 835 0 822 0C809 0 796 0 782.8 0C769.7 0 756.3 0 743.2 0C730 0 717 0 704 0C691 0 678 0 665 0C652 0 639 0 626 0C613 0 600 0 587 0C574 0 561 0 548 0C535 0 522 0 509 0C496 0 483 0 469.8 0C456.7 0 443.3 0 430.2 0C417 0 404 0 391 0C378 0 365 0 352 0C339 0 326 0 313 0C300 0 287 0 274 0C261 0 248 0 235 0C222 0 209 0 196 0C183 0 170 0 156.8 0C143.7 0 130.3 0 117.2 0C104 0 91 0 78 0C65 0 52 0 39 0C26 0 13 0 6.5 0L0 0Z" fill="#4d6475"></path><path d="M0 25L6.5 25.8C13 26.7 26 28.3 39 28.7C52 29 65 28 78 27.3C91 26.7 104 26.3 117.2 26.5C130.3 26.7 143.7 27.3 156.8 28.5C170 29.7 183 31.3 196 29.5C209 27.7 222 22.3 235 20C248 17.7 261 18.3 274 20.7C287 23 300 27 313 29.2C326 31.3 339 31.7 352 30.5C365 29.3 378 26.7 391 26.8C404 27 417 30 430.2 31.7C443.3 33.3 456.7 33.7 469.8 31.3C483 29 496 24 509 21.2C522 18.3 535 17.7 548 17.3C561 17 574 17 587 17.2C600 17.3 613 17.7 626 18.7C639 19.7 652 21.3 665 21.3C678 21.3 691 19.7 704 20.7C717 21.7 730 25.3 743.2 26.3C756.3 27.3 769.7 25.7 782.8 24.7C796 23.7 809 23.3 822 23C835 22.7 848 22.3 861 23.5C874 24.7 887 27.3 893.5 28.7L900 30L900 0L893.5 0C887 0 874 0 861 0C848 0 835 0 822 0C809 0 796 0 782.8 0C769.7 0 756.3 0 743.2 0C730 0 717 0 704 0C691 0 678 0 665 0C652 0 639 0 626 0C613 0 600 0 587 0C574 0 561 0 548 0C535 0 522 0 509 0C496 0 483 0 469.8 0C456.7 0 443.3 0 430.2 0C417 0 404 0 391 0C378 0 365 0 352 0C339 0 326 0 313 0C300 0 287 0 274 0C261 0 248 0 235 0C222 0 209 0 196 0C183 0 170 0 156.8 0C143.7 0 130.3 0 117.2 0C104 0 91 0 78 0C65 0 52 0 39 0C26 0 13 0 6.5 0L0 0Z" fill="#375365"></path><path d="M0 13L6.5 13.8C13 14.7 26 16.3 39 18C52 19.7 65 21.3 78 21.5C91 21.7 104 20.3 117.2 18.5C130.3 16.7 143.7 14.3 156.8 14.8C170 15.3 183 18.7 196 19.3C209 20 222 18 235 17.5C248 17 261 18 274 17.5C287 17 300 15 313 15.3C326 15.7 339 18.3 352 18.5C365 18.7 378 16.3 391 15.3C404 14.3 417 14.7 430.2 14.8C443.3 15 456.7 15 469.8 14.7C483 14.3 496 13.7 509 14.2C522 14.7 535 16.3 548 15.7C561 15 574 12 587 12.3C600 12.7 613 16.3 626 19C639 21.7 652 23.3 665 22.7C678 22 691 19 704 18.5C717 18 730 20 743.2 18.8C756.3 17.7 769.7 13.3 782.8 12.7C796 12 809 15 822 16.5C835 18 848 18 861 18.8C874 19.7 887 21.3 893.5 22.2L900 23L900 0L893.5 0C887 0 874 0 861 0C848 0 835 0 822 0C809 0 796 0 782.8 0C769.7 0 756.3 0 743.2 0C730 0 717 0 704 0C691 0 678 0 665 0C652 0 639 0 626 0C613 0 600 0 587 0C574 0 561 0 548 0C535 0 522 0 509 0C496 0 483 0 469.8 0C456.7 0 443.3 0 430.2 0C417 0 404 0 391 0C378 0 365 0 352 0C339 0 326 0 313 0C300 0 287 0 274 0C261 0 248 0 235 0C222 0 209 0 196 0C183 0 170 0 156.8 0C143.7 0 130.3 0 117.2 0C104 0 91 0 78 0C65 0 52 0 39 0C26 0 13 0 6.5 0L0 0Z" fill="#214256"></path><path d="M0 15L6.5 13.8C13 12.7 26 10.3 39 8.2C52 6 65 4 78 4.5C91 5 104 8 117.2 9C130.3 10 143.7 9 156.8 8.7C170 8.3 183 8.7 196 7.7C209 6.7 222 4.3 235 4.5C248 4.7 261 7.3 274 7.2C287 7 300 4 313 2.8C326 1.7 339 2.3 352 4.3C365 6.3 378 9.7 391 11.5C404 13.3 417 13.7 430.2 11.7C443.3 9.7 456.7 5.3 469.8 3.8C483 2.3 496 3.7 509 5.2C522 6.7 535 8.3 548 8.3C561 8.3 574 6.7 587 7.2C600 7.7 613 10.3 626 12.2C639 14 652 15 665 15.2C678 15.3 691 14.7 704 12.8C717 11 730 8 743.2 6.7C756.3 5.3 769.7 5.7 782.8 6.5C796 7.3 809 8.7 822 8.7C835 8.7 848 7.3 861 5.8C874 4.3 887 2.7 893.5 1.8L900 1L900 0L893.5 0C887 0 874 0 861 0C848 0 835 0 822 0C809 0 796 0 782.8 0C769.7 0 756.3 0 743.2 0C730 0 717 0 704 0C691 0 678 0 665 0C652 0 639 0 626 0C613 0 600 0 587 0C574 0 561 0 548 0C535 0 522 0 509 0C496 0 483 0 469.8 0C456.7 0 443.3 0 430.2 0C417 0 404 0 391 0C378 0 365 0 352 0C339 0 326 0 313 0C300 0 287 0 274 0C261 0 248 0 235 0C222 0 209 0 196 0C183 0 170 0 156.8 0C143.7 0 130.3 0 117.2 0C104 0 91 0 78 0C65 0 52 0 39 0C26 0 13 0 6.5 0L0 0Z" fill="#053247"></path></svg>