<?xml version="1.0" encoding="utf-8"?>
<!-- Generator: Adobe Illustrator 27.2.0, SVG Export Plug-In . SVG Version: 6.00 Build 0)  -->
<svg version="1.1" id="Capa_1" xmlns="http://www.w3.org/2000/svg" xmlns:xlink="http://www.w3.org/1999/xlink" x="0px" y="0px"
	 viewBox="0 0 750 500" style="enable-background:new 0 0 750 500;" xml:space="preserve">
<style type="text/css">
	.st0{opacity:0.26;fill:url(#SVGID_1_);}
	.st1{opacity:0.42;fill:url(#SVGID_00000008120537414947641080000012851742951166022297_);}
</style>
<linearGradient id="SVGID_1_" gradientUnits="userSpaceOnUse" x1="616.746" y1="264.058" x2="583.1282" y2="112.7417">
	<stop  offset="0" style="stop-color:#00979C"/>
	<stop  offset="1" style="stop-color:#00697A"/>
</linearGradient>
<path class="st0" d="M855.07,161.04l-122.65-37.89l-17.4,8.43c0,0-4.08-3.2-20.64-1.26c-16.56,1.93-32.76,3.69-32.76,3.69
	l-57.54-18.71l-52.02-3.18l-70.37,26.07l-100.66,21.07l-68.57,61.64l282.87,37.25l314.62-0.68L855.07,161.04z"/>
<linearGradient id="SVGID_00000019679715939880618640000007775302998160989845_" gradientUnits="userSpaceOnUse" x1="178.6748" y1="127.3534" x2="274.6436" y2="398.7099">
	<stop  offset="0" style="stop-color:#00697A"/>
	<stop  offset="1" style="stop-color:#00979C"/>
</linearGradient>
<path style="opacity:0.42;fill:url(#SVGID_00000019679715939880618640000007775302998160989845_);" d="M550.14,254.02
	c0,0-107.69-24.11-115.72-20.89c-8.04,3.21-49.83-0.3-49.83-0.3l-24.11-25.42c0,0-19.29-11.25-30.54-14.47
	c-11.25-3.21-54.65,0-54.65,0l-62.68-22.5l-28.93-9.64l-41.79-28.93c0,0-59.47,20.89-69.11,20.89s-20.89,24.11-20.89,24.11
	l-36.97,16.07l-28.93,32.15l-90.01,114.12h715.23L550.14,254.02z"/>
</svg>
