<?xml version="1.0" encoding="utf-8"?>
<!-- Generator: Adobe Illustrator 27.2.0, SVG Export Plug-In . SVG Version: 6.00 Build 0)  -->
<svg version="1.1" id="Capa_1" xmlns="http://www.w3.org/2000/svg" xmlns:xlink="http://www.w3.org/1999/xlink" x="0px" y="0px"
	 viewBox="0 0 750 500" style="enable-background:new 0 0 750 500;" xml:space="preserve">
<style type="text/css">
	.st0{fill:url(#SVGID_1_);}
	.st1{opacity:0.13;fill:url(#SVGID_00000107561734430676547130000001489649070030740658_);}
	.st2{fill:url(#SVGID_00000024697449740413916080000014711572172952444547_);}
	.st3{opacity:0.08;fill:url(#SVGID_00000023243070001627671520000011129042249411472534_);}
	.st4{fill:url(#SVGID_00000094603341369574655690000000887457333457525402_);}
	.st5{fill:url(#SVGID_00000124850473162688722730000016272427154585954720_);}
	.st6{fill:url(#SVGID_00000163771722991474721320000008627220392695772051_);}
	.st7{opacity:0.61;}
	.st8{fill:url(#SVGID_00000054230421706167596470000007771304101210968216_);}
	.st9{opacity:0.58;fill:url(#SVGID_00000108295344364529146980000009911240021029049770_);}
	.st10{opacity:0.18;}
	.st11{fill:url(#SVGID_00000118399391859853231140000009740541051095389629_);}
	.st12{fill:url(#SVGID_00000173882154156289668590000010887814929659043733_);}
	.st13{fill:none;}
	.st14{fill:#C7FFFF;}
</style>
<linearGradient id="SVGID_1_" gradientUnits="userSpaceOnUse" x1="-1261.6449" y1="180.7145" x2="-1265.2393" y2="432.3051" gradientTransform="matrix(-0.9945 0.1051 0.1051 0.9945 -859.2475 55.3083)">
	<stop  offset="0" style="stop-color:#00697A"/>
	<stop  offset="1" style="stop-color:#00979C"/>
</linearGradient>
<path class="st0" d="M172.13,259.59c0,0,85.45-28.85,92.26-26.93c6.81,1.92,109.41-50.54,109.41-50.54l75.68-4.85l79.82-35.77
	l54.5,3.4l40.58,23.69l126.34,131.95l-620.91,33.54L172.13,259.59z"/>
<linearGradient id="SVGID_00000170973294181115668660000011872904064677705357_" gradientUnits="userSpaceOnUse" x1="414.4438" y1="102.4329" x2="444.4709" y2="352.2708">
	<stop  offset="0" style="stop-color:#006376"/>
	<stop  offset="1" style="stop-color:#1B9E9C"/>
</linearGradient>
<path style="opacity:0.13;fill:url(#SVGID_00000170973294181115668660000011872904064677705357_);" d="M138.56,354.33l17.48-42.52
	l24.07-43.91c0,0,11.78,16.07,36.06,20.27c0,0-23.43-17.98-23.67-23.33c-0.24-5.35,23.67-5.58,23.67-5.58l14.98-3.6l17.26,29.2
	c0,0-13.46-36.08,0-37.61c13.46-1.53,24.24-5.21,24.24-5.21s18.4,11.29,17.58,34.25c0,0-0.61-26.32-3.24-38.52
	c-2.62-12.21,20.68-11.18,20.68-11.18l5.28-6.88c0,0,18.56-4.03,18.38-4.03s6.56,8.38,34.57,17.38c0,0-25.24-18.21-25.24-21.51
	c0-3.3,15.3-10.19,15.3-10.19l9.94-3.82c0,0-0.88-15.3,9.12,0c10,15.3,11.76,46.66,10.88,52.77c-0.88,6.12,3.62-50.39,0.2-59.57
	c-3.42-9.19,12.65,4.5,12.65,4.5h13.91h15.04l19.17-7.68c0,0,7.32,30.01,22.42,44.99l-12.87-44.99l20.55-15.5h8.88l6.8,0
	c0,0,13.31,1.76,12.11,17.82c-1.2,16.06,7.93-28.43,7.93-28.43l10.92-8.28c0,0,16.16,13.77,17.18,31.36c1.02,17.59,0-31.36,0-31.36
	h18.72l11.18,3.82l28.49,15.07l9,13.23v47.76l13.8-50.82l23.12,24.47l11.63,9.94c0,0,61.48,57.36,69.27,65.01
	c7.79,7.65,24.75,18.86,24.75,18.86L624.39,168.58l-40.58-23.69l-54.5-3.4l-79.82,35.77l-75.68,4.85l-101.16,50.43l-18.52,0.51
	l-81.99,26.52l-42.32,74.48L138.56,354.33z"/>
<linearGradient id="SVGID_00000068655026665567951190000000181222331883705730_" gradientUnits="userSpaceOnUse" x1="201.675" y1="242.3794" x2="201.675" y2="366.2369">
	<stop  offset="0" style="stop-color:#00697A"/>
	<stop  offset="1" style="stop-color:#00979C"/>
</linearGradient>
<path style="fill:url(#SVGID_00000068655026665567951190000000181222331883705730_);" d="M368.39,297.4l-89.62-40.85h-23.72
	l-25.04,7.91c0,0-19.77-42.17-27.68-42.17c-7.91,0-32.95,6.59-32.95,6.59l-25.04,18.45l-15.81,19.77l-44.81,19.77
	c0,0-19.77,21.09-34.26,28.99c-14.5,7.91-14.5,7.91-14.5,7.91h333.42V297.4z"/>
<linearGradient id="SVGID_00000138541680654929553140000004003238800859691413_" gradientUnits="userSpaceOnUse" x1="201.675" y1="248.0148" x2="201.675" y2="406.6057">
	<stop  offset="0" style="stop-color:#006376"/>
	<stop  offset="1" style="stop-color:#1B9E9C"/>
</linearGradient>
<path style="opacity:0.08;fill:url(#SVGID_00000138541680654929553140000004003238800859691413_);" d="M40.57,348.33l29.34-34.91
	l20.6-21.04l33.32-16.07c0,0,6.89,12.5,23.41,16.72c0,0-16.4-6.29-17.43-20l12.44-10.76l3.28-6.32c0,0,10.37,11.8,10.51,22.33
	c0,0-5.3-16.86-5.48-26.13c-0.18-9.27,5.48-4.89,5.48-4.89l4.98-3.12l5.28-2.09c0,0,14.83,25.72,27.85,26.13
	c0,0-20.27-18.21-20.27-30.39l7.7-4.72h5.56l9.24,4.72v13.97l12.04-18.68l4.53,14.19l9.4,17.95l7.85,7.81l11.57-3.6l-1.72,16.92
	l8.37-20.29l10.52-1.26l5.66-0.42c0,0,0.22,16.98,8.06,21.97c7.84,5-3.55-15.23-3.33-20.71l13.7-2.11l10.53,6.32l14.12,3.18
	c0,0,8.22,19.58,7.38,27.59c0,0,2.65-10.5,0.06-21.05l14.23,6.78l7.71,4.36l8.13,8.27l8.75,8.38l14.47-9.94l-89.62-40.85h-23.72
	l-25.04,7.91c0,0-18.6-40.01-27.68-42.17l-32.95,6.59l-25.04,18.45l-25.67,24.12l-34.95,15.42l-48.76,36.9l7.26,28.46"/>
<linearGradient id="SVGID_00000137819508418632720400000001911949539941928323_" gradientUnits="userSpaceOnUse" x1="156.0332" y1="327.9868" x2="156.0332" y2="307.0263">
	<stop  offset="0" style="stop-color:#1B9E9C;stop-opacity:0"/>
	<stop  offset="1" style="stop-color:#006376"/>
</linearGradient>
<polygon style="fill:url(#SVGID_00000137819508418632720400000001911949539941928323_);" points="234.5,306.39 230.01,296.52 
	228.79,302.22 225.54,293.9 223.7,302.44 221.97,297.72 221.46,299.69 220.48,297.4 219.26,301.47 217.28,296.39 215.99,302.36 
	214.26,297.64 213.75,299.61 212.77,297.32 212.33,298.8 211.14,296.02 209.79,301.81 206.63,293.7 204.05,305.72 200.08,295.57 
	198.6,300.95 196.77,295.49 196.2,297.84 195.14,295.12 194.65,296.87 193.36,293.56 192.04,299.72 190.22,295.06 188.22,302.33 
	186.09,296.89 184.21,303.71 180.95,295.37 178.81,303.1 176.75,297.24 175.76,302.31 173.16,294.92 171.68,302.51 170.29,298.31 
	169.88,300.07 169.09,298.03 168.11,301.65 166.52,297.14 165.48,302.45 164.09,298.25 163.68,300 162.9,297.97 162.54,299.28 
	161.59,296.81 160.5,301.96 157.97,294.76 155.96,305.02 152.08,294 151.29,297.16 148.46,290.92 147.65,294.69 147.23,293.51 
	146.75,295.42 145.49,291.83 144.82,295.26 141.54,286.86 139.19,297.83 138.34,295.45 137.8,297.61 136.03,292.76 135.23,295.82 
	133.72,292.27 131.84,298.57 128.77,290.71 127.39,297.11 125.9,292.86 125.3,295.9 124.11,292.64 123.31,295.69 121.8,292.15 
	121.12,294.43 119.29,290.13 117.21,299.09 112.31,286.56 110.17,296.54 108.81,292.68 107.03,301.82 102.19,289.44 100.37,296.05 
	99.89,294.48 99.46,296.46 97.06,289.32 96.19,292.95 94.55,288.74 93.8,291.45 91.81,286.34 89.76,295.86 86.95,288.66 
	83.85,299.9 80.56,291.48 77.65,302.03 77.57,301.83 77.57,306.65 82.67,306.62 82.5,307.34 "/>
<linearGradient id="SVGID_00000057141267274775069840000006995326453051492509_" gradientUnits="userSpaceOnUse" x1="-17.3993" y1="327.9868" x2="-17.3993" y2="307.0263">
	<stop  offset="0" style="stop-color:#1B9E9C;stop-opacity:0"/>
	<stop  offset="1" style="stop-color:#006376"/>
</linearGradient>
<polygon style="fill:url(#SVGID_00000057141267274775069840000006995326453051492509_);" points="61.06,306.39 56.58,296.52 
	55.35,302.22 52.1,293.9 50.27,302.44 48.54,297.72 48.02,299.69 47.05,297.4 45.83,301.47 43.84,296.39 42.56,302.36 40.83,297.64 
	40.31,299.61 39.34,297.32 38.9,298.8 37.71,296.02 36.36,301.81 33.2,293.7 30.62,305.72 26.65,295.57 25.17,300.95 23.33,295.49 
	22.77,297.84 21.71,295.12 21.22,296.87 19.93,293.56 18.61,299.72 16.79,295.06 14.78,302.33 12.66,296.89 10.77,303.71 
	7.51,295.37 5.38,303.1 3.32,297.24 2.33,302.31 -0.27,294.92 -1.75,302.51 -3.14,298.31 -3.56,300.07 -4.34,298.03 -5.32,301.65 
	-6.91,297.14 -7.95,302.45 -9.34,298.25 -9.75,300 -10.54,297.97 -10.89,299.28 -11.84,296.81 -12.93,301.96 -15.47,294.76 
	-17.47,305.02 -21.35,294 -22.14,297.16 -24.98,290.92 -25.79,294.69 -26.2,293.51 -26.68,295.42 -27.94,291.83 -28.61,295.26 
	-31.89,286.86 -34.25,297.83 -35.09,295.45 -35.63,297.61 -37.41,292.76 -38.2,295.82 -39.71,292.27 -41.6,298.57 -44.66,290.71 
	-46.04,297.11 -47.54,292.86 -48.13,295.9 -49.33,292.64 -50.12,295.69 -51.63,292.15 -52.31,294.43 -54.14,290.13 -56.23,299.09 
	-61.12,286.56 -63.26,296.54 -64.62,292.68 -66.4,301.82 -71.24,289.44 -73.06,296.05 -73.54,294.48 -73.97,296.46 -76.37,289.32 
	-77.24,292.95 -78.88,288.74 -79.63,291.45 -81.63,286.34 -83.67,295.86 -86.48,288.66 -89.58,299.9 -92.87,291.48 -95.78,302.03 
	-95.86,301.83 -95.86,306.65 -90.76,306.62 -90.94,307.34 "/>
<g>
	
		<linearGradient id="SVGID_00000134224364110798223910000004469714768282428316_" gradientUnits="userSpaceOnUse" x1="490.9113" y1="220.5641" x2="492.4868" y2="376.5558">
		<stop  offset="0" style="stop-color:#006376"/>
		<stop  offset="1" style="stop-color:#1B9E9C"/>
	</linearGradient>
	<path style="fill:url(#SVGID_00000134224364110798223910000004469714768282428316_);" d="M191.19,310.58c0,0,61.94-22.4,73.8-22.4
		c11.86,0,35.58-6.59,54.03-9.23c18.45-2.64,79.07-26.36,79.07-26.36h34.26l25.04-11.86c0,0,36.9,6.59,42.17,6.59
		c5.27,0,39.54-18.45,39.54-18.45l36.9-26.36h26.36l39.54-23.72l41.36-6.72l49.57,34.4l59.3,60.62v55.35H191.19V310.58z"/>
	<g class="st7">
		
			<linearGradient id="SVGID_00000098910662640259577370000013594987644129117580_" gradientUnits="userSpaceOnUse" x1="490.9113" y1="220.5641" x2="492.4868" y2="376.5558">
			<stop  offset="0" style="stop-color:#006376"/>
			<stop  offset="1" style="stop-color:#1B9E9C"/>
		</linearGradient>
		<path style="fill:url(#SVGID_00000098910662640259577370000013594987644129117580_);" d="M191.19,310.58c0,0,61.94-22.4,73.8-22.4
			c11.86,0,35.58-6.59,54.03-9.23c18.45-2.64,79.07-26.36,79.07-26.36h34.26l25.04-11.86c0,0,36.9,6.59,42.17,6.59
			c5.27,0,39.54-18.45,39.54-18.45l36.9-26.36h26.36l39.54-23.72l41.36-6.72l49.57,34.4l59.3,60.62v55.35H191.19V310.58z"/>
	</g>
</g>
<linearGradient id="SVGID_00000107581699587553134370000008554432787151185283_" gradientUnits="userSpaceOnUse" x1="523.5992" y1="346.7343" x2="523.5992" y2="311.2866">
	<stop  offset="0" style="stop-color:#1B9E9C;stop-opacity:0"/>
	<stop  offset="1" style="stop-color:#006376"/>
</linearGradient>
<polygon style="opacity:0.58;fill:url(#SVGID_00000107581699587553134370000008554432787151185283_);" points="793.08,306.82 
	786.19,279.78 780.3,297.33 776.52,283.09 772.67,294.55 768.64,279.38 765.35,289.18 762.65,276.32 760.32,283.27 759.34,279.62 
	757.42,285.35 756.28,280.44 752.99,291.91 750.01,280.69 742.84,302.04 737.57,276.96 731.84,294.01 729.1,281.91 726.95,287.76 
	726.07,284.69 724.3,289.51 723.26,285.39 720.14,295.32 717.52,282.85 713.93,293.54 711.49,285.05 709.72,289.87 708.68,285.75 
	705.56,295.69 701.81,277.86 695.94,295.36 693.44,283.46 689.99,293.74 686.35,280.05 679.95,299.11 675.84,283.66 671.66,296.1 
	667.29,279.63 663.71,290.27 660.78,276.3 658.24,283.85 657.19,279.88 655.1,286.1 653.86,280.78 650.29,293.23 647.04,281.04 
	639.26,304.24 634.76,282.82 629.67,297.98 627.23,287.22 625.32,292.42 624.54,289.69 623.06,293.72 620.61,284.12 617.84,292.38 
	616.93,288.06 614.41,295.57 612.14,287.02 609.87,293.79 609.08,290.64 607.99,294.11 605.24,283.77 603.86,287.87 602.97,283.62 
	601.46,288.1 599.99,281.09 597.94,287.18 597.09,283.98 595.53,288.64 595.52,288.6 595.4,288.96 594.41,284.7 591.53,294.75 
	588.91,284.92 587.74,288.41 586.68,284.8 581.56,298.51 578.01,281.65 574.64,291.71 572.93,296.28 570.6,285.99 568.99,290.36 
	567.26,284.45 565.51,289.15 565.48,289.03 565.1,290.25 563.6,294.26 560.64,281.41 558.04,288.37 556.98,284.71 555.3,289.2 
	555.17,288.74 554.71,289.97 553.58,285.55 549.91,297.02 549.34,295.04 546.69,282.44 541.54,297.77 539.35,287.35 536.33,296.35 
	535.11,291.78 532.89,282.11 526.82,298.36 523.93,287.52 523.75,288.06 523.51,287.09 521.12,292.94 520.15,289.87 518.85,293.05 
	516.44,283.99 513.31,293.31 510.74,281.08 508.52,287.69 507.59,284.21 505.76,289.66 504.68,285 501.91,294.63 500.91,290.98 
	500.53,292.07 498.71,285.23 495.8,293.88 493.32,283.1 489.38,293.65 487.94,286.78 485.36,294.47 484.04,288.73 481.98,293.44 
	481.35,290.64 479.67,295.2 478.99,292.8 477.61,296.56 476.8,293.35 474.37,301.09 472.32,291.38 469.53,299.7 467.63,293.09 
	466.25,296.84 465.44,293.64 463.01,301.37 460.09,287.48 455.51,301.12 453.57,291.85 449.94,302.64 445.82,288.52 440.07,303.91 
	436.44,291.45 432.68,301.49 428.81,288.21 425.6,296.81 423.01,285.55 420.73,291.64 419.8,288.44 417.92,293.47 416.82,289.17 
	414.1,297.68 413.56,295.34 413.02,297.21 410.74,289.4 405.22,304.17 402.95,293.36 401.41,297.97 398.69,286.16 393.11,301.11 
	390.48,290.52 388.38,295.65 387.53,292.96 385.8,297.19 384.81,293.58 383.44,297.47 382.69,293.87 380.99,298.95 379.24,291.38 
	375.74,300.75 373.4,293.32 371.67,297.54 370.67,293.94 368.65,299.72 367.97,297.16 367.01,300.01 364.03,287.03 360.29,297.05 
	359.43,292.99 358,297.27 357.4,295.02 356.93,296.43 355.9,291.96 352.64,299.41 351.65,295.68 347.24,308.83 344.69,296.68 
	341.8,305.28 340.42,299.18 339.34,302.13 338.89,300.58 338,303.01 337.48,300.93 335.9,305.94 334.58,299.66 332.78,305.04 
	331.55,300.77 330.65,303.19 330.13,301.12 328.56,306.12 326.67,297.14 323.71,305.96 322.45,299.96 320.1,306.95 317.44,297.81 
	313.72,307.76 311.37,299.7 308.94,306.2 306.43,297.61 304.36,303.17 302.68,295.89 301.21,299.83 300.6,297.76 299.39,301.01 
	298.68,298.23 296.6,304.74 294.75,298.38 290.22,310.49 286.95,296.28 283.34,305.96 281.63,299.11 280.28,302.42 279.73,300.68 
	278.61,303.42 277.97,301.08 275.99,306.72 274.37,299.66 272.1,305.72 270.59,300.91 269.47,303.65 268.82,301.31 266.85,306.95 
	264.53,296.85 260.82,306.78 259.27,300.04 254.12,311.81 434.42,310.29 434.2,309.44 475.14,309.1 474.96,309.51 "/>
<g class="st10">
	
		<linearGradient id="SVGID_00000130639831752216265090000017766525009863914159_" gradientUnits="userSpaceOnUse" x1="234.9081" y1="293.9823" x2="235.0944" y2="312.4199">
		<stop  offset="0" style="stop-color:#006376"/>
		<stop  offset="1" style="stop-color:#1B9E9C"/>
	</linearGradient>
	<path style="fill:url(#SVGID_00000130639831752216265090000017766525009863914159_);" d="M234.5,306.39l30.49-18.21
		c-8.3,0-41.14,10.98-60.1,17.56L234.5,306.39z"/>
	
		<linearGradient id="SVGID_00000086652906128362986460000013648870841954533808_" gradientUnits="userSpaceOnUse" x1="495.1305" y1="210.1868" x2="496.3562" y2="331.5446">
		<stop  offset="0" style="stop-color:#006376"/>
		<stop  offset="1" style="stop-color:#1B9E9C"/>
	</linearGradient>
	<path style="fill:url(#SVGID_00000086652906128362986460000013648870841954533808_);" d="M272.64,294.06l-1.15-4.69l33.35-5.06
		l5.42,7.3l-1.69-7.3l7.58,5.06l-3.09-6.46l31.74-9.89l15.58-3.31c5.07-1.08,10.35,0.15,14.44,3.34l10.44,8.17l-12.64-15.17
		l8.99,5.62l-1.4-8.15l1.25-0.58c4.86-2.23,10.59-1.35,14.55,2.25l8.63,7.83l-10.11-13.75h3.93l11.52,11.84l-6.46-15.17h10.11
		l5.34,7.87v-7.87l6.46,14.89v-14.89h5.9l16.01,21.63l-9.54-18.3l1.11-6.7l4.78-2.81l8.72,12.13l-0.76-14.63l18.3,19.2l-8.7-19.2
		l11.1,9c-1.77-3.55-3.93-11.51-0.08-10.57l11.76,2.88c3.17,0.78,6.01,2.56,8.08,5.07l14.96,18.14l-9.43-15.56
		c-1.6-2.65-0.14-6.09,2.88-6.77l5.11-1.15c2.88-0.65,5.9,0.2,8.02,2.26c6.78,6.59,21.11,20.38,17.79,15.98
		c-2.8-3.7-7-9.15-10.44-13.6c-3.11-4.02-1.86-9.87,2.62-12.28l5.69-3.05c3.24-1.74,7.09-1.95,10.5-0.57l31.78,20.64l-32.67-24.5
		l3.87-2.13c1.11-0.61,2.43-0.71,3.62-0.29l12.17,4.38l-4.91-4.16c-2.21-1.87-2.05-5.32,0.32-6.98l9.92-6.94
		c4.99-3.49,11.27-4.58,17.14-2.98l0,0l-0.57-0.57c-1.88-1.88-0.69-5.09,1.96-5.3h0c7.02,2.19,13.39,6.07,18.56,11.3l24.35,24.62
		l-26.04-39.33h5.62l18.81-10.9c3.66-2.12,8.17-2.11,11.82,0.02l7.58,4.42l-8.25-11.52l4.03-2.25l8.99,7.3l0,0
		c-2.5-4.86,0.46-10.75,5.85-11.65l0.89-0.15l9.17-1.39c11.19-1.7,22.24,3.8,27.63,13.75v0l-1.4-10.68l4.49,4.49l6.03,12.36v-11.8
		l17.29,16.29l8.09-1.41l-42.72-29.64l-41.36,6.72l-39.54,23.72H576l-36.9,26.36c0,0-34.26,18.45-39.54,18.45
		c-5.27,0-42.17-6.59-42.17-6.59l-25.04,11.86h-34.26c0,0-60.62,23.72-79.07,26.36c-18.45,2.64-42.17,9.23-54.03,9.23L272.64,294.06
		z"/>
</g>
<rect class="st13" width="750" height="500"/>
<g>
	<path class="st14" d="M349.56,235.78"/>
	<path class="st14" d="M505.76,289.66"/>
</g>
</svg>
