<?xml version="1.0" encoding="utf-8"?>
<!-- Generator: Adobe Illustrator 27.2.0, SVG Export Plug-In . SVG Version: 6.00 Build 0)  -->
<svg version="1.1" id="Capa_1" xmlns="http://www.w3.org/2000/svg" xmlns:xlink="http://www.w3.org/1999/xlink" x="0px" y="0px"
	 viewBox="0 0 750 500" style="enable-background:new 0 0 750 500;" xml:space="preserve">
<style type="text/css">
	.st0{opacity:0.22;fill:#FFFFFF;}
	.st1{opacity:0.16;fill:#FFFFFF;}
	.st2{opacity:0.3;fill:#FFFFFF;}
</style>
<path class="st0" d="M-79.4,120.68c44.63-10.69,243.63-6.47,215.21,1.25c-28.41,7.72-118.39,4.88-124.31,10.3
	c-7.8,7.14,230.19-3.46,212.63,14.82c-9.24,9.63-329.35,41.11-331.14-10.45C-107.26,129.35-89.58,123.12-79.4,120.68z"/>
<path class="st1" d="M860.27,13.59c0,0-313.11-4.6-277.12,15.61C619.13,49.42,733.1,42,740.6,56.19
	c9.88,18.7-331.92-4.74-269.34,38.82c22.82,15.89,389.01-0.63,389.01-0.63V13.59z"/>
<path class="st2" d="M-30.11-21.01c0,0,256.05-4.9,226.61,16.62C167.07,17.13,73.88,9.23,67.75,24.34
	C59.67,44.25,306.18,14.68,288,65.67c-9.58,26.85-318.11-0.67-318.11-0.67V-21.01z"/>
</svg>
