<svg id="visual" viewBox="0 0 347.58 120" width="347.58" height="120" xmlns="http://www.w3.org/2000/svg" xmlns:xlink="http://www.w3.org/1999/xlink" version="1.1"><rect x="0" y="0" width="347.58" height="120" fill="#E5E7EB"></rect><path d="M0 16L2 22.2C4 28.3 8 40.7 12.2 49.2C16.3 57.7 20.7 62.3 24.8 62.2C29 62 33 57 37.2 56.5C41.3 56 45.7 60 49.8 62.5C54 65 58 66 62 69.3C66 72.7 70 78.3 74.2 83.2C78.3 88 82.7 92 86.8 88.7C91 85.3 95 74.7 99.2 61C103.3 47.3 107.7 30.7 111.8 23.7C116 16.7 120 19.3 124.2 30.8C128.3 42.3 132.7 62.7 136.8 69.2C141 75.7 145 68.3 149 72.7C153 77 157 93 161.2 97C165.3 101 169.7 93 173.8 78.8C178 64.7 182 44.3 186.2 31C190.3 17.7 194.7 11.3 198.8 18C203 24.7 207 44.3 211 59.2C215 74 219 84 223.2 78C227.3 72 231.7 50 235.8 49.7C240 49.3 244 70.7 248.2 67.7C252.3 64.7 256.7 37.3 260.8 24C265 10.7 269 11.3 273.2 20.3C277.3 29.3 281.7 46.7 285.8 45.7C290 44.7 294 25.3 298 29.2C302 33 306 60 310.2 63.8C314.3 67.7 318.7 48.3 322.8 44.7C327 41 331 53 335.2 53.5C339.3 54 343.7 43 345.8 37.5L348 32L348 0L345.8 0C343.7 0 339.3 0 335.2 0C331 0 327 0 322.8 0C318.7 0 314.3 0 310.2 0C306 0 302 0 298 0C294 0 290 0 285.8 0C281.7 0 277.3 0 273.2 0C269 0 265 0 260.8 0C256.7 0 252.3 0 248.2 0C244 0 240 0 235.8 0C231.7 0 227.3 0 223.2 0C219 0 215 0 211 0C207 0 203 0 198.8 0C194.7 0 190.3 0 186.2 0C182 0 178 0 173.8 0C169.7 0 165.3 0 161.2 0C157 0 153 0 149 0C145 0 141 0 136.8 0C132.7 0 128.3 0 124.2 0C120 0 116 0 111.8 0C107.7 0 103.3 0 99.2 0C95 0 91 0 86.8 0C82.7 0 78.3 0 74.2 0C70 0 66 0 62 0C58 0 54 0 49.8 0C45.7 0 41.3 0 37.2 0C33 0 29 0 24.8 0C20.7 0 16.3 0 12.2 0C8 0 4 0 2 0L0 0Z" fill="#FFF" stroke-linecap="round" stroke-linejoin="miter"></path></svg>