<?xml version="1.0" encoding="utf-8"?>
<!-- Generator: Adobe Illustrator 27.2.0, SVG Export Plug-In . SVG Version: 6.00 Build 0)  -->
<svg version="1.1" id="Capa_1" xmlns="http://www.w3.org/2000/svg" xmlns:xlink="http://www.w3.org/1999/xlink" x="0px" y="0px"
	 viewBox="0 0 750 500" style="enable-background:new 0 0 750 500;" xml:space="preserve">
<style type="text/css">
	.st0{fill:#C7FFFF;}
</style>
<g>
	<path class="st0" d="M329.95,192.95c2.83,0.81,6.16,2.12,9.56,3.64l41.53-37.33l100.66-21.07l3.44-1.28
		c-10.91-42.63-49.58-74.14-95.61-74.14c-54.51,0-98.69,44.19-98.69,98.69c0,10.6,1.68,20.81,4.77,30.38
		C308.51,191.35,323.89,191.22,329.95,192.95z"/>
</g>
<g>
	<path class="st0" d="M330.21,130.84c2.83-0.81,6.16-2.12,9.56-3.64l41.53,37.33l100.66,21.07l3.44,1.28
		c-10.91,42.63-49.58,74.14-95.61,74.14c-54.51,0-98.69-44.19-98.69-98.69c0-10.6,1.68-20.81,4.77-30.38
		C308.77,132.44,324.15,132.57,330.21,130.84z"/>
</g>
<path class="st0" d="M336.06,229.46c0,0-0.97-2.38-1.83-4.81c-2.57-7.28-4.27-32.66-2.56-66.99c3.56-3.85,7.11-7.7,10.67-11.56
	l58.13-76.52l1.5-3.63c6.85,0.61,42.14,4.45,66.59,34.81c22.61,28.09,25.16,65.46,13.91,93.67
	c-22.15,55.54-98.82,78.04-131.25,56.55c-3.36-2.22-5.97-4.74-8-7.11C341.04,240.22,338.46,235.38,336.06,229.46z"/>
</svg>
