<svg id="visual" viewBox="0 0 900 600" width="900" height="600" xmlns="http://www.w3.org/2000/svg" xmlns:xlink="http://www.w3.org/1999/xlink" version="1.1"><rect x="0" y="0" width="900" height="600" fill="#fff"></rect><path d="M0 51L5.8 49.5C11.7 48 23.3 45 34.8 48.2C46.3 51.3 57.7 60.7 69.2 62C80.7 63.3 92.3 56.7 103.8 60.3C115.3 64 126.7 78 138.2 75.7C149.7 73.3 161.3 54.7 173 54C184.7 53.3 196.3 70.7 207.8 69.3C219.3 68 230.7 48 242.2 42.8C253.7 37.7 265.3 47.3 277 53.7C288.7 60 300.3 63 311.8 62.3C323.3 61.7 334.7 57.3 346.2 61C357.7 64.7 369.3 76.3 380.8 74.8C392.3 73.3 403.7 58.7 415.2 53C426.7 47.3 438.3 50.7 450 55.8C461.7 61 473.3 68 484.8 67.7C496.3 67.3 507.7 59.7 519.2 60.5C530.7 61.3 542.3 70.7 553.8 76C565.3 81.3 576.7 82.7 588.2 85C599.7 87.3 611.3 90.7 623 89.7C634.7 88.7 646.3 83.3 657.8 81.3C669.3 79.3 680.7 80.7 692.2 75.5C703.7 70.3 715.3 58.7 727 51.2C738.7 43.7 750.3 40.3 761.8 42.7C773.3 45 784.7 53 796.2 57.7C807.7 62.3 819.3 63.7 830.8 62.8C842.3 62 853.7 59 865.2 61.5C876.7 64 888.3 72 894.2 76L900 80L900 0L894.2 0C888.3 0 876.7 0 865.2 0C853.7 0 842.3 0 830.8 0C819.3 0 807.7 0 796.2 0C784.7 0 773.3 0 761.8 0C750.3 0 738.7 0 727 0C715.3 0 703.7 0 692.2 0C680.7 0 669.3 0 657.8 0C646.3 0 634.7 0 623 0C611.3 0 599.7 0 588.2 0C576.7 0 565.3 0 553.8 0C542.3 0 530.7 0 519.2 0C507.7 0 496.3 0 484.8 0C473.3 0 461.7 0 450 0C438.3 0 426.7 0 415.2 0C403.7 0 392.3 0 380.8 0C369.3 0 357.7 0 346.2 0C334.7 0 323.3 0 311.8 0C300.3 0 288.7 0 277 0C265.3 0 253.7 0 242.2 0C230.7 0 219.3 0 207.8 0C196.3 0 184.7 0 173 0C161.3 0 149.7 0 138.2 0C126.7 0 115.3 0 103.8 0C92.3 0 80.7 0 69.2 0C57.7 0 46.3 0 34.8 0C23.3 0 11.7 0 5.8 0L0 0Z" fill="#053247" stroke-linecap="round" stroke-linejoin="miter"></path></svg>