<svg id="visual" viewBox="0 0 1920 1080" width="1920" height="1080" xmlns="http://www.w3.org/2000/svg" xmlns:xlink="http://www.w3.org/1999/xlink" version="1.1"><rect x="0" y="0" width="1920" height="1080" fill="#E5E7EB"></rect><path d="M0 311L40 291.5C80 272 160 233 240 221.5C320 210 400 226 480 249.5C560 273 640 304 720 303.5C800 303 880 271 960 269.8C1040 268.7 1120 298.3 1200 313.3C1280 328.3 1360 328.7 1440 314.8C1520 301 1600 273 1680 268.3C1760 263.7 1840 282.3 1880 291.7L1920 301L1920 0L1880 0C1840 0 1760 0 1680 0C1600 0 1520 0 1440 0C1360 0 1280 0 1200 0C1120 0 1040 0 960 0C880 0 800 0 720 0C640 0 560 0 480 0C400 0 320 0 240 0C160 0 80 0 40 0L0 0Z" fill="#2a88e6" stroke-linecap="round" stroke-linejoin="miter"></path></svg>