<svg id="visual" viewBox="0 0 900 600" width="900" height="600" xmlns="http://www.w3.org/2000/svg" xmlns:xlink="http://www.w3.org/1999/xlink" version="1.1"><rect x="0" y="0" width="900" height="600" fill="#053247"></rect><path d="M0 55L4.8 55.3C9.7 55.7 19.3 56.3 29 52.7C38.7 49 48.3 41 58 45.2C67.7 49.3 77.3 65.7 87 74.8C96.7 84 106.3 86 116 78.7C125.7 71.3 135.3 54.7 145 47.8C154.7 41 164.3 44 174 47.2C183.7 50.3 193.3 53.7 203 59.8C212.7 66 222.3 75 232 78.8C241.7 82.7 251.3 81.3 261 74.7C270.7 68 280.3 56 290 51.7C299.7 47.3 309.3 50.7 319 49.2C328.7 47.7 338.3 41.3 348 45.8C357.7 50.3 367.3 65.7 377 71.8C386.7 78 396.3 75 406 69.8C415.7 64.7 425.3 57.3 435.2 58.7C445 60 455 70 464.8 69.8C474.7 69.7 484.3 59.3 494 55.8C503.7 52.3 513.3 55.7 523 53.8C532.7 52 542.3 45 552 41.2C561.7 37.3 571.3 36.7 581 44.8C590.7 53 600.3 70 610 74.5C619.7 79 629.3 71 639 62.2C648.7 53.3 658.3 43.7 668 39.7C677.7 35.7 687.3 37.3 697 39.3C706.7 41.3 716.3 43.7 726 48C735.7 52.3 745.3 58.7 755 64.2C764.7 69.7 774.3 74.3 784 75.2C793.7 76 803.3 73 813 69.2C822.7 65.3 832.3 60.7 842 58.3C851.7 56 861.3 56 871 56.3C880.7 56.7 890.3 57.3 895.2 57.7L900 58L900 0L895.2 0C890.3 0 880.7 0 871 0C861.3 0 851.7 0 842 0C832.3 0 822.7 0 813 0C803.3 0 793.7 0 784 0C774.3 0 764.7 0 755 0C745.3 0 735.7 0 726 0C716.3 0 706.7 0 697 0C687.3 0 677.7 0 668 0C658.3 0 648.7 0 639 0C629.3 0 619.7 0 610 0C600.3 0 590.7 0 581 0C571.3 0 561.7 0 552 0C542.3 0 532.7 0 523 0C513.3 0 503.7 0 494 0C484.3 0 474.7 0 464.8 0C455 0 445 0 435.2 0C425.3 0 415.7 0 406 0C396.3 0 386.7 0 377 0C367.3 0 357.7 0 348 0C338.3 0 328.7 0 319 0C309.3 0 299.7 0 290 0C280.3 0 270.7 0 261 0C251.3 0 241.7 0 232 0C222.3 0 212.7 0 203 0C193.3 0 183.7 0 174 0C164.3 0 154.7 0 145 0C135.3 0 125.7 0 116 0C106.3 0 96.7 0 87 0C77.3 0 67.7 0 58 0C48.3 0 38.7 0 29 0C19.3 0 9.7 0 4.8 0L0 0Z" fill="#FFF" stroke-linecap="round" stroke-linejoin="miter"></path></svg>